<svg xmlns="http://www.w3.org/2000/svg" viewBox="0 0 4344 24" width="4344" height="24"><g fill="none" stroke="#000000" stroke-miterlimit="10"><path d="M5.5 10.5l5 6 9-9" stroke-dasharray="0,20.538171737264513" stroke-dashoffset="20.538172"/><path d="M12 1.5c-2.784 0-5.456 1.107-7.425 3.075C2.607 6.544 1.5 9.216 1.5 12s1.107 5.456 3.075 7.425C6.544 21.393 9.216 22.5 12 22.5s5.456-1.107 7.425-3.075C21.393 17.456 22.5 14.784 22.5 12s-1.107-5.456-3.075-7.425C17.456 2.607 14.784 1.5 12 1.5z" stroke-dasharray="0,65.97336791255663" stroke-dashoffset="65.973368"/></g><g fill="none" stroke="#000000" stroke-miterlimit="10"><path d="M29.5 10.5l5 6 9-9" stroke-dasharray="0.17115143114387094,20.367020306120644" stroke-dashoffset="20.538172"/><path d="M36 1.5c-2.784 0-5.456 1.107-7.425 3.075C26.607 6.544 25.5 9.216 25.5 12s1.107 5.456 3.075 7.425C30.544 21.393 33.216 22.5 36 22.5s5.456-1.107 7.425-3.075C45.393 17.456 46.5 14.784 46.5 12s-1.107-5.456-3.075-7.425C41.456 2.607 38.784 1.5 36 1.5z" stroke-dasharray="0,65.97336791255663" stroke-dashoffset="65.973368"/></g><g fill="none" stroke="#000000" stroke-miterlimit="10"><path d="M53.5 10.5l5 6 9-9" stroke-dasharray="0.34230286228774187,20.19586887497677" stroke-dashoffset="20.538172"/><path d="M60 1.5c-2.784 0-5.456 1.107-7.425 3.075C50.607 6.544 49.5 9.216 49.5 12s1.107 5.456 3.075 7.425C54.544 21.393 57.216 22.5 60 22.5s5.456-1.107 7.425-3.075C69.393 17.456 70.5 14.784 70.5 12s-1.107-5.456-3.075-7.425C65.456 2.607 62.784 1.5 60 1.5z" stroke-dasharray="0,65.97336791255663" stroke-dashoffset="65.973368"/></g><g fill="none" stroke="#000000" stroke-miterlimit="10"><path d="M77.5 10.5l5 6 9-9" stroke-dasharray="0.5134542934316129,20.0247174438329" stroke-dashoffset="20.538172"/><path d="M84 1.5c-2.784 0-5.456 1.107-7.425 3.075C74.607 6.544 73.5 9.216 73.5 12s1.107 5.456 3.075 7.425C78.544 21.393 81.216 22.5 84 22.5s5.456-1.107 7.425-3.075C93.393 17.456 94.5 14.784 94.5 12s-1.107-5.456-3.075-7.425C89.456 2.607 86.784 1.5 84 1.5z" stroke-dasharray="0,65.97336791255663" stroke-dashoffset="65.973368"/></g><g fill="none" stroke-miterlimit="10"><path d="M101.5 10.5l5 6 9-9" stroke="#000001" stroke-dasharray="0.6846057245754837,19.85356601268903" stroke-dashoffset="20.538172"/><path d="M108 1.5c-2.784 0-5.456 1.107-7.425 3.075C98.607 6.544 97.5 9.216 97.5 12s1.107 5.456 3.075 7.425c1.969 1.968 4.641 3.075 7.425 3.075s5.456-1.107 7.425-3.075c1.968-1.969 3.075-4.641 3.075-7.425s-1.107-5.456-3.075-7.425C113.456 2.607 110.784 1.5 108 1.5z" stroke="#000000" stroke-dasharray="0,65.97336791255663" stroke-dashoffset="65.973368"/></g><g fill="none" stroke-miterlimit="10"><path d="M125.5 10.5l5 6 9-9" stroke="#000101" stroke-dasharray="0.8557571557193546,19.68241458154516" stroke-dashoffset="20.538172"/><path d="M132 1.5c-2.784 0-5.456 1.107-7.425 3.075C122.607 6.544 121.5 9.216 121.5 12s1.107 5.456 3.075 7.425c1.969 1.968 4.641 3.075 7.425 3.075s5.456-1.107 7.425-3.075c1.968-1.969 3.075-4.641 3.075-7.425s-1.107-5.456-3.075-7.425C137.456 2.607 134.784 1.5 132 1.5z" stroke="#000000" stroke-dasharray="0,65.97336791255663" stroke-dashoffset="65.973368"/></g><g fill="none" stroke-miterlimit="10"><path d="M149.5 10.5l5 6 9-9" stroke="#010101" stroke-dasharray="1.0269085868632257,19.511263150401287" stroke-dashoffset="20.538172"/><path d="M156 1.5c-2.784 0-5.456 1.107-7.425 3.075C146.607 6.544 145.5 9.216 145.5 12s1.107 5.456 3.075 7.425c1.969 1.968 4.641 3.075 7.425 3.075s5.456-1.107 7.425-3.075c1.968-1.969 3.075-4.641 3.075-7.425s-1.107-5.456-3.075-7.425C161.456 2.607 158.784 1.5 156 1.5z" stroke="#000000" stroke-dasharray="0,65.97336791255663" stroke-dashoffset="65.973368"/></g><g fill="none" stroke-miterlimit="10"><path d="M173.5 10.5l5 6 9-9" stroke="#010102" stroke-dasharray="1.1980600180070966,19.340111719257415" stroke-dashoffset="20.538172"/><path d="M180 1.5c-2.784 0-5.456 1.107-7.425 3.075C170.607 6.544 169.5 9.216 169.5 12s1.107 5.456 3.075 7.425c1.969 1.968 4.641 3.075 7.425 3.075s5.456-1.107 7.425-3.075c1.968-1.969 3.075-4.641 3.075-7.425s-1.107-5.456-3.075-7.425C185.456 2.607 182.784 1.5 180 1.5z" stroke="#000000" stroke-dasharray="0,65.97336791255663" stroke-dashoffset="65.973368"/></g><g fill="none" stroke-miterlimit="10"><path d="M197.5 10.5l5 6 9-9" stroke="#010203" stroke-dasharray="1.3692114491509675,19.168960288113546" stroke-dashoffset="20.538172"/><path d="M204 1.5c-2.784 0-5.456 1.107-7.425 3.075C194.607 6.544 193.5 9.216 193.5 12s1.107 5.456 3.075 7.425c1.969 1.968 4.641 3.075 7.425 3.075s5.456-1.107 7.425-3.075c1.968-1.969 3.075-4.641 3.075-7.425s-1.107-5.456-3.075-7.425C209.456 2.607 206.784 1.5 204 1.5z" stroke="#000000" stroke-dasharray="0,65.97336791255663" stroke-dashoffset="65.973368"/></g><g fill="none" stroke-miterlimit="10"><path d="M221.5 10.5l5 6 9-9" stroke="#010203" stroke-dasharray="1.5403628802948384,18.997808856969677" stroke-dashoffset="20.538172"/><path d="M228 1.5c-2.784 0-5.456 1.107-7.425 3.075C218.607 6.544 217.5 9.216 217.5 12s1.107 5.456 3.075 7.425c1.969 1.968 4.641 3.075 7.425 3.075s5.456-1.107 7.425-3.075c1.968-1.969 3.075-4.641 3.075-7.425s-1.107-5.456-3.075-7.425C233.456 2.607 230.784 1.5 228 1.5z" stroke="#000000" stroke-dasharray="0,65.97336791255663" stroke-dashoffset="65.973368"/></g><g fill="none" stroke-miterlimit="10"><path d="M245.5 10.5l5 6 9-9" stroke="#020304" stroke-dasharray="1.7115143114387092,18.826657425825804" stroke-dashoffset="20.538172"/><path d="M252 1.5c-2.784 0-5.456 1.107-7.425 3.075C242.607 6.544 241.5 9.216 241.5 12s1.107 5.456 3.075 7.425c1.969 1.968 4.641 3.075 7.425 3.075s5.456-1.107 7.425-3.075c1.968-1.969 3.075-4.641 3.075-7.425s-1.107-5.456-3.075-7.425C257.456 2.607 254.784 1.5 252 1.5z" stroke="#000000" stroke-dasharray="0,65.97336791255663" stroke-dashoffset="65.973368"/></g><g fill="none" stroke-miterlimit="10"><path d="M269.5 10.5l5 6 9-9" stroke="#020305" stroke-dasharray="1.8826657425825801,18.65550599468193" stroke-dashoffset="20.538172"/><path d="M276 1.5c-2.784 0-5.456 1.107-7.425 3.075C266.607 6.544 265.5 9.216 265.5 12s1.107 5.456 3.075 7.425c1.969 1.968 4.641 3.075 7.425 3.075s5.456-1.107 7.425-3.075c1.968-1.969 3.075-4.641 3.075-7.425s-1.107-5.456-3.075-7.425C281.456 2.607 278.784 1.5 276 1.5z" stroke="#000000" stroke-dasharray="0,65.97336791255663" stroke-dashoffset="65.973368"/></g><g fill="none" stroke-miterlimit="10"><path d="M293.5 10.5l5 6 9-9" stroke="#030406" stroke-dasharray="2.0538171737264515,18.484354563538062" stroke-dashoffset="20.538172"/><path d="M300 1.5c-2.784 0-5.456 1.107-7.425 3.075C290.607 6.544 289.5 9.216 289.5 12s1.107 5.456 3.075 7.425c1.969 1.968 4.641 3.075 7.425 3.075s5.456-1.107 7.425-3.075c1.968-1.969 3.075-4.641 3.075-7.425s-1.107-5.456-3.075-7.425C305.456 2.607 302.784 1.5 300 1.5z" stroke="#000000" stroke-dasharray="0,65.97336791255663" stroke-dashoffset="65.973368"/></g><g fill="none" stroke-miterlimit="10"><path d="M317.5 10.5l5 6 9-9" stroke="#030507" stroke-dasharray="2.224968604870322,18.313203132394193" stroke-dashoffset="20.538172"/><path d="M324 1.5c-2.784 0-5.456 1.107-7.425 3.075C314.607 6.544 313.5 9.216 313.5 12s1.107 5.456 3.075 7.425c1.969 1.968 4.641 3.075 7.425 3.075s5.456-1.107 7.425-3.075c1.968-1.969 3.075-4.641 3.075-7.425s-1.107-5.456-3.075-7.425C329.456 2.607 326.784 1.5 324 1.5z" stroke="#000000" stroke-dasharray="0,65.97336791255663" stroke-dashoffset="65.973368"/></g><g fill="none" stroke-miterlimit="10"><path d="M341.5 10.5l5 6 9-9" stroke="#040509" stroke-dasharray="2.396120036014193,18.14205170125032" stroke-dashoffset="20.538172"/><path d="M348 1.5c-2.784 0-5.456 1.107-7.425 3.075C338.607 6.544 337.5 9.216 337.5 12s1.107 5.456 3.075 7.425c1.969 1.968 4.641 3.075 7.425 3.075s5.456-1.107 7.425-3.075c1.968-1.969 3.075-4.641 3.075-7.425s-1.107-5.456-3.075-7.425C353.456 2.607 350.784 1.5 348 1.5z" stroke="#000000" stroke-dasharray="0,65.97336791255663" stroke-dashoffset="65.973368"/></g><g fill="none" stroke-miterlimit="10"><path d="M365.5 10.5l5 6 9-9" stroke="#04060a" stroke-dasharray="2.567271467158064,17.970900270106448" stroke-dashoffset="20.538172"/><path d="M372 1.5c-2.784 0-5.456 1.107-7.425 3.075C362.607 6.544 361.5 9.216 361.5 12s1.107 5.456 3.075 7.425c1.969 1.968 4.641 3.075 7.425 3.075s5.456-1.107 7.425-3.075c1.968-1.969 3.075-4.641 3.075-7.425s-1.107-5.456-3.075-7.425C377.456 2.607 374.784 1.5 372 1.5z" stroke="#000000" stroke-dasharray="0,65.97336791255663" stroke-dashoffset="65.973368"/></g><g fill="none" stroke-miterlimit="10"><path d="M389.5 10.5l5 6 9-9" stroke="#05070c" stroke-dasharray="2.738422898301935,17.79974883896258" stroke-dashoffset="20.538172"/><path d="M396 1.5c-2.784 0-5.456 1.107-7.425 3.075C386.607 6.544 385.5 9.216 385.5 12s1.107 5.456 3.075 7.425c1.969 1.968 4.641 3.075 7.425 3.075s5.456-1.107 7.425-3.075c1.968-1.969 3.075-4.641 3.075-7.425s-1.107-5.456-3.075-7.425C401.456 2.607 398.784 1.5 396 1.5z" stroke="#000000" stroke-dasharray="0,65.97336791255663" stroke-dashoffset="65.973368"/></g><g fill="none" stroke-miterlimit="10"><path d="M413.5 10.5l5 6 9-9" stroke="#06090e" stroke-dasharray="2.909574329445806,17.62859740781871" stroke-dashoffset="20.538172"/><path d="M420 1.5c-2.784 0-5.456 1.107-7.425 3.075C410.607 6.544 409.5 9.216 409.5 12s1.107 5.456 3.075 7.425c1.969 1.968 4.641 3.075 7.425 3.075s5.456-1.107 7.425-3.075c1.968-1.969 3.075-4.641 3.075-7.425s-1.107-5.456-3.075-7.425C425.456 2.607 422.784 1.5 420 1.5z" stroke="#000000" stroke-dasharray="0,65.97336791255663" stroke-dashoffset="65.973368"/></g><g fill="none" stroke-miterlimit="10"><path d="M437.5 10.5l5 6 9-9" stroke="#070a10" stroke-dasharray="3.0807257605896767,17.457445976674837" stroke-dashoffset="20.538172"/><path d="M444 1.5c-2.784 0-5.456 1.107-7.425 3.075C434.607 6.544 433.5 9.216 433.5 12s1.107 5.456 3.075 7.425c1.969 1.968 4.641 3.075 7.425 3.075s5.456-1.107 7.425-3.075c1.968-1.969 3.075-4.641 3.075-7.425s-1.107-5.456-3.075-7.425C449.456 2.607 446.784 1.5 444 1.5z" stroke="#000000" stroke-dasharray="0,65.97336791255663" stroke-dashoffset="65.973368"/></g><g fill="none" stroke-miterlimit="10"><path d="M461.5 10.5l5 6 9-9" stroke="#080b12" stroke-dasharray="3.251877191733548,17.286294545530964" stroke-dashoffset="20.538172"/><path d="M468 1.5c-2.784 0-5.456 1.107-7.425 3.075C458.607 6.544 457.5 9.216 457.5 12s1.107 5.456 3.075 7.425c1.969 1.968 4.641 3.075 7.425 3.075s5.456-1.107 7.425-3.075c1.968-1.969 3.075-4.641 3.075-7.425s-1.107-5.456-3.075-7.425C473.456 2.607 470.784 1.5 468 1.5z" stroke="#000000" stroke-dasharray="0,65.97336791255663" stroke-dashoffset="65.973368"/></g><g fill="none" stroke-miterlimit="10"><path d="M485.5 10.5l5 6 9-9" stroke="#090d14" stroke-dasharray="3.4230286228774185,17.115143114387095" stroke-dashoffset="20.538172"/><path d="M492 1.5c-2.784 0-5.456 1.107-7.425 3.075C482.607 6.544 481.5 9.216 481.5 12s1.107 5.456 3.075 7.425c1.969 1.968 4.641 3.075 7.425 3.075s5.456-1.107 7.425-3.075c1.968-1.969 3.075-4.641 3.075-7.425s-1.107-5.456-3.075-7.425C497.456 2.607 494.784 1.5 492 1.5z" stroke="#000000" stroke-dasharray="0,65.97336791255663" stroke-dashoffset="65.973368"/></g><g fill="none" stroke-miterlimit="10"><path d="M509.5 10.5l5 6 9-9" stroke="#0a0e17" stroke-dasharray="3.5941800540212894,16.943991683243222" stroke-dashoffset="20.538172"/><path d="M516 1.5c-2.784 0-5.456 1.107-7.425 3.075C506.607 6.544 505.5 9.216 505.5 12s1.107 5.456 3.075 7.425c1.969 1.968 4.641 3.075 7.425 3.075s5.456-1.107 7.425-3.075c1.968-1.969 3.075-4.641 3.075-7.425s-1.107-5.456-3.075-7.425C521.456 2.607 518.784 1.5 516 1.5z" stroke="#000000" stroke-dasharray="0,65.97336791255663" stroke-dashoffset="65.973368"/></g><g fill="none" stroke-miterlimit="10"><path d="M533.5 10.5l5 6 9-9" stroke="#0b101a" stroke-dasharray="3.7653314851651603,16.772840252099353" stroke-dashoffset="20.538172"/><path d="M540 1.5c-2.784 0-5.456 1.107-7.425 3.075C530.607 6.544 529.5 9.216 529.5 12s1.107 5.456 3.075 7.425c1.969 1.968 4.641 3.075 7.425 3.075s5.456-1.107 7.425-3.075c1.968-1.969 3.075-4.641 3.075-7.425s-1.107-5.456-3.075-7.425C545.456 2.607 542.784 1.5 540 1.5z" stroke="#000000" stroke-dasharray="0,65.97336791255663" stroke-dashoffset="65.973368"/></g><g fill="none" stroke-miterlimit="10"><path d="M557.5 10.5l5 6 9-9" stroke="#0c121d" stroke-dasharray="3.936482916309031,16.60168882095548" stroke-dashoffset="20.538172"/><path d="M564 1.5c-2.784 0-5.456 1.107-7.425 3.075C554.607 6.544 553.5 9.216 553.5 12s1.107 5.456 3.075 7.425c1.969 1.968 4.641 3.075 7.425 3.075s5.456-1.107 7.425-3.075c1.968-1.969 3.075-4.641 3.075-7.425s-1.107-5.456-3.075-7.425C569.456 2.607 566.784 1.5 564 1.5z" stroke="#000000" stroke-dasharray="0,65.97336791255663" stroke-dashoffset="65.973368"/></g><g fill="none" stroke-miterlimit="10"><path d="M581.5 10.5l5 6 9-9" stroke="#0d1420" stroke-dasharray="4.107634347452903,16.43053738981161" stroke-dashoffset="20.538172"/><path d="M588 1.5c-2.784 0-5.456 1.107-7.425 3.075C578.607 6.544 577.5 9.216 577.5 12s1.107 5.456 3.075 7.425c1.969 1.968 4.641 3.075 7.425 3.075s5.456-1.107 7.425-3.075c1.968-1.969 3.075-4.641 3.075-7.425s-1.107-5.456-3.075-7.425C593.456 2.607 590.784 1.5 588 1.5z" stroke="#000000" stroke-dasharray="0,65.97336791255663" stroke-dashoffset="65.973368"/></g><g fill="none" stroke-miterlimit="10"><path d="M605.5 10.5l5 6 9-9" stroke="#0f1623" stroke-dasharray="4.278785778596774,16.25938595866774" stroke-dashoffset="20.538172"/><path d="M612 1.5c-2.784 0-5.456 1.107-7.425 3.075C602.607 6.544 601.5 9.216 601.5 12s1.107 5.456 3.075 7.425c1.969 1.968 4.641 3.075 7.425 3.075s5.456-1.107 7.425-3.075c1.968-1.969 3.075-4.641 3.075-7.425s-1.107-5.456-3.075-7.425C617.456 2.607 614.784 1.5 612 1.5z" stroke="#000000" stroke-dasharray="0,65.97336791255663" stroke-dashoffset="65.973368"/></g><g fill="none" stroke-miterlimit="10"><path d="M629.5 10.5l5 6 9-9" stroke="#101827" stroke-dasharray="4.449937209740644,16.08823452752387" stroke-dashoffset="20.538172"/><path d="M636 1.5c-2.784 0-5.456 1.107-7.425 3.075C626.607 6.544 625.5 9.216 625.5 12s1.107 5.456 3.075 7.425c1.969 1.968 4.641 3.075 7.425 3.075s5.456-1.107 7.425-3.075c1.968-1.969 3.075-4.641 3.075-7.425s-1.107-5.456-3.075-7.425C641.456 2.607 638.784 1.5 636 1.5z" stroke="#000000" stroke-dasharray="0,65.97336791255663" stroke-dashoffset="65.973368"/></g><g fill="none" stroke-miterlimit="10"><path d="M653.5 10.5l5 6 9-9" stroke="#121b2b" stroke-dasharray="4.6210886408845155,15.917083096379997" stroke-dashoffset="20.538172"/><path d="M660 1.5c-2.784 0-5.456 1.107-7.425 3.075C650.607 6.544 649.5 9.216 649.5 12s1.107 5.456 3.075 7.425c1.969 1.968 4.641 3.075 7.425 3.075s5.456-1.107 7.425-3.075c1.968-1.969 3.075-4.641 3.075-7.425s-1.107-5.456-3.075-7.425C665.456 2.607 662.784 1.5 660 1.5z" stroke="#000000" stroke-dasharray="0,65.97336791255663" stroke-dashoffset="65.973368"/></g><g fill="none" stroke-miterlimit="10"><path d="M677.5 10.5l5 6 9-9" stroke="#141e2f" stroke-dasharray="4.792240072028386,15.745931665236125" stroke-dashoffset="20.538172"/><path d="M684 1.5c-2.784 0-5.456 1.107-7.425 3.075C674.607 6.544 673.5 9.216 673.5 12s1.107 5.456 3.075 7.425c1.969 1.968 4.641 3.075 7.425 3.075s5.456-1.107 7.425-3.075c1.968-1.969 3.075-4.641 3.075-7.425s-1.107-5.456-3.075-7.425C689.456 2.607 686.784 1.5 684 1.5z" stroke="#000000" stroke-dasharray="0,65.97336791255663" stroke-dashoffset="65.973368"/></g><g fill="none" stroke-miterlimit="10"><path d="M701.5 10.5l5 6 9-9" stroke="#162033" stroke-dasharray="4.963391503172258,15.574780234092255" stroke-dashoffset="20.538172"/><path d="M708 1.5c-2.784 0-5.456 1.107-7.425 3.075C698.607 6.544 697.5 9.216 697.5 12s1.107 5.456 3.075 7.425c1.969 1.968 4.641 3.075 7.425 3.075s5.456-1.107 7.425-3.075c1.968-1.969 3.075-4.641 3.075-7.425s-1.107-5.456-3.075-7.425C713.456 2.607 710.784 1.5 708 1.5z" stroke="#000000" stroke-dasharray="0,65.97336791255663" stroke-dashoffset="65.973368"/></g><g fill="none" stroke-miterlimit="10"><path d="M725.5 10.5l5 6 9-9" stroke="#182338" stroke-dasharray="5.134542934316128,15.403628802948385" stroke-dashoffset="20.538172"/><path d="M732 1.5c-2.784 0-5.456 1.107-7.425 3.075C722.607 6.544 721.5 9.216 721.5 12s1.107 5.456 3.075 7.425c1.969 1.968 4.641 3.075 7.425 3.075s5.456-1.107 7.425-3.075c1.968-1.969 3.075-4.641 3.075-7.425s-1.107-5.456-3.075-7.425C737.456 2.607 734.784 1.5 732 1.5z" stroke="#000000" stroke-dasharray="0,65.97336791255663" stroke-dashoffset="65.973368"/></g><g fill="none" stroke-miterlimit="10"><path d="M749.5 10.5l5 6 9-9" stroke="#1a263d" stroke-dasharray="5.305694365459998,15.232477371804514" stroke-dashoffset="20.538172"/><path d="M756 1.5c-2.784 0-5.456 1.107-7.425 3.075C746.607 6.544 745.5 9.216 745.5 12s1.107 5.456 3.075 7.425c1.969 1.968 4.641 3.075 7.425 3.075s5.456-1.107 7.425-3.075c1.968-1.969 3.075-4.641 3.075-7.425s-1.107-5.456-3.075-7.425C761.456 2.607 758.784 1.5 756 1.5z" stroke="#000000" stroke-dasharray="0,65.97336791255663" stroke-dashoffset="65.973368"/></g><g fill="none" stroke-miterlimit="10"><path d="M773.5 10.5l5 6 9-9" stroke="#1c2942" stroke-dasharray="5.47684579660387,15.061325940660645" stroke-dashoffset="20.538172"/><path d="M780 1.5c-2.784 0-5.456 1.107-7.425 3.075C770.607 6.544 769.5 9.216 769.5 12s1.107 5.456 3.075 7.425c1.969 1.968 4.641 3.075 7.425 3.075s5.456-1.107 7.425-3.075c1.968-1.969 3.075-4.641 3.075-7.425s-1.107-5.456-3.075-7.425C785.456 2.607 782.784 1.5 780 1.5z" stroke="#000000" stroke-dasharray="0,65.97336791255663" stroke-dashoffset="65.973368"/></g><g fill="none" stroke-miterlimit="10"><path d="M797.5 10.5l5 6 9-9" stroke="#1e2d47" stroke-dasharray="5.647997227747742,14.890174509516772" stroke-dashoffset="20.538172"/><path d="M804 1.5c-2.784 0-5.456 1.107-7.425 3.075C794.607 6.544 793.5 9.216 793.5 12s1.107 5.456 3.075 7.425c1.969 1.968 4.641 3.075 7.425 3.075s5.456-1.107 7.425-3.075c1.968-1.969 3.075-4.641 3.075-7.425s-1.107-5.456-3.075-7.425C809.456 2.607 806.784 1.5 804 1.5z" stroke="#000000" stroke-dasharray="0,65.97336791255663" stroke-dashoffset="65.973368"/></g><g fill="none" stroke-miterlimit="10"><path d="M821.5 10.5l5 6 9-9" stroke="#20304c" stroke-dasharray="5.819148658891612,14.719023078372901" stroke-dashoffset="20.538172"/><path d="M828 1.5c-2.784 0-5.456 1.107-7.425 3.075C818.607 6.544 817.5 9.216 817.5 12s1.107 5.456 3.075 7.425c1.969 1.968 4.641 3.075 7.425 3.075s5.456-1.107 7.425-3.075c1.968-1.969 3.075-4.641 3.075-7.425s-1.107-5.456-3.075-7.425C833.456 2.607 830.784 1.5 828 1.5z" stroke="#000000" stroke-dasharray="0,65.97336791255663" stroke-dashoffset="65.973368"/></g><g fill="none" stroke-miterlimit="10"><path d="M845.5 10.5l5 6 9-9" stroke="#223352" stroke-dasharray="5.9903000900354835,14.547871647229028" stroke-dashoffset="20.538172"/><path d="M852 1.5c-2.784 0-5.456 1.107-7.425 3.075C842.607 6.544 841.5 9.216 841.5 12s1.107 5.456 3.075 7.425c1.969 1.968 4.641 3.075 7.425 3.075s5.456-1.107 7.425-3.075c1.968-1.969 3.075-4.641 3.075-7.425s-1.107-5.456-3.075-7.425C857.456 2.607 854.784 1.5 852 1.5z" stroke="#000000" stroke-dasharray="0,65.97336791255663" stroke-dashoffset="65.973368"/></g><g fill="none" stroke-miterlimit="10"><path d="M869.5 10.5l5 6 9-9" stroke="#253757" stroke-dasharray="6.1614515211793535,14.376720216085157" stroke-dashoffset="20.538172"/><path d="M876 1.5c-2.784 0-5.456 1.107-7.425 3.075C866.607 6.544 865.5 9.216 865.5 12s1.107 5.456 3.075 7.425c1.969 1.968 4.641 3.075 7.425 3.075s5.456-1.107 7.425-3.075c1.968-1.969 3.075-4.641 3.075-7.425s-1.107-5.456-3.075-7.425C881.456 2.607 878.784 1.5 876 1.5z" stroke="#000000" stroke-dasharray="0,65.97336791255663" stroke-dashoffset="65.973368"/></g><g fill="none" stroke-miterlimit="10"><path d="M893.5 10.5l5 6 9-9" stroke="#273a5c" stroke-dasharray="6.332602952323224,14.205568784941288" stroke-dashoffset="20.538172"/><path d="M900 1.5c-2.784 0-5.456 1.107-7.425 3.075C890.607 6.544 889.5 9.216 889.5 12s1.107 5.456 3.075 7.425c1.969 1.968 4.641 3.075 7.425 3.075s5.456-1.107 7.425-3.075c1.968-1.969 3.075-4.641 3.075-7.425s-1.107-5.456-3.075-7.425C905.456 2.607 902.784 1.5 900 1.5z" stroke="#000000" stroke-dasharray="0,65.97336791255663" stroke-dashoffset="65.973368"/></g><g fill="none" stroke-miterlimit="10"><path d="M917.5 10.5l5 6 9-9" stroke="#293d62" stroke-dasharray="6.503754383467096,14.034417353797418" stroke-dashoffset="20.538172"/><path d="M924 1.5c-2.784 0-5.456 1.107-7.425 3.075C914.607 6.544 913.5 9.216 913.5 12s1.107 5.456 3.075 7.425c1.969 1.968 4.641 3.075 7.425 3.075s5.456-1.107 7.425-3.075c1.968-1.969 3.075-4.641 3.075-7.425s-1.107-5.456-3.075-7.425C929.456 2.607 926.784 1.5 924 1.5z" stroke="#000000" stroke-dasharray="0,65.97336791255663" stroke-dashoffset="65.973368"/></g><g fill="none" stroke-miterlimit="10"><path d="M941.5 10.5l5 6 9-9" stroke="#2c4167" stroke-dasharray="6.674905814610967,13.863265922653547" stroke-dashoffset="20.538172"/><path d="M948 1.5c-2.784 0-5.456 1.107-7.425 3.075C938.607 6.544 937.5 9.216 937.5 12s1.107 5.456 3.075 7.425c1.969 1.968 4.641 3.075 7.425 3.075s5.456-1.107 7.425-3.075c1.968-1.969 3.075-4.641 3.075-7.425s-1.107-5.456-3.075-7.425C953.456 2.607 950.784 1.5 948 1.5z" stroke="#000000" stroke-dasharray="0,65.97336791255663" stroke-dashoffset="65.973368"/></g><g fill="none" stroke-miterlimit="10"><path d="M965.5 10.5l5 6 9-9" stroke="#2e446c" stroke-dasharray="6.846057245754837,13.692114491509678" stroke-dashoffset="20.538172"/><path d="M972 1.5c-2.784 0-5.456 1.107-7.425 3.075C962.607 6.544 961.5 9.216 961.5 12s1.107 5.456 3.075 7.425c1.969 1.968 4.641 3.075 7.425 3.075s5.456-1.107 7.425-3.075c1.968-1.969 3.075-4.641 3.075-7.425s-1.107-5.456-3.075-7.425C977.456 2.607 974.784 1.5 972 1.5z" stroke="#000000" stroke-dasharray="0,65.97336791255663" stroke-dashoffset="65.973368"/></g><g fill="none" stroke-miterlimit="10"><path d="M989.5 10.5l5 6 9-9" stroke="#304771" stroke-dasharray="7.017208676898709,13.520963060365805" stroke-dashoffset="20.538172"/><path d="M996 1.5c-2.784 0-5.456 1.107-7.425 3.075C986.607 6.544 985.5 9.216 985.5 12s1.107 5.456 3.075 7.425c1.969 1.968 4.641 3.075 7.425 3.075s5.456-1.107 7.425-3.075c1.968-1.969 3.075-4.641 3.075-7.425s-1.107-5.456-3.075-7.425C1001.456 2.607 998.784 1.5 996 1.5z" stroke="#000000" stroke-dasharray="0,65.97336791255663" stroke-dashoffset="65.973368"/></g><g fill="none" stroke-miterlimit="10"><path d="M1013.5 10.5l5 6 9-9" stroke="#324a76" stroke-dasharray="7.188360108042579,13.349811629221934" stroke-dashoffset="20.538172"/><path d="M1020 1.5c-2.784 0-5.456 1.107-7.425 3.075-1.968 1.969-3.075 4.641-3.075 7.425s1.107 5.456 3.075 7.425c1.969 1.968 4.641 3.075 7.425 3.075s5.456-1.107 7.425-3.075c1.968-1.969 3.075-4.641 3.075-7.425s-1.107-5.456-3.075-7.425c-1.969-1.968-4.641-3.075-7.425-3.075z" stroke="#000000" stroke-dasharray="0,65.97336791255663" stroke-dashoffset="65.973368"/></g><g fill="none" stroke-miterlimit="10"><path d="M1037.5 10.5l5 6 9-9" stroke="#344e7b" stroke-dasharray="7.359511539186451,13.178660198078061" stroke-dashoffset="20.538172"/><path d="M1044 1.5c-2.784 0-5.456 1.107-7.425 3.075-1.968 1.969-3.075 4.641-3.075 7.425s1.107 5.456 3.075 7.425c1.969 1.968 4.641 3.075 7.425 3.075s5.456-1.107 7.425-3.075c1.968-1.969 3.075-4.641 3.075-7.425s-1.107-5.456-3.075-7.425c-1.969-1.968-4.641-3.075-7.425-3.075z" stroke="#000000" stroke-dasharray="0,65.97336791255663" stroke-dashoffset="65.973368"/></g><g fill="none" stroke-miterlimit="10"><path d="M1061.5 10.5l5 6 9-9" stroke="#365180" stroke-dasharray="7.5306629703303205,13.00750876693419" stroke-dashoffset="20.538172"/><path d="M1068 1.5c-2.784 0-5.456 1.107-7.425 3.075-1.968 1.969-3.075 4.641-3.075 7.425s1.107 5.456 3.075 7.425c1.969 1.968 4.641 3.075 7.425 3.075s5.456-1.107 7.425-3.075c1.968-1.969 3.075-4.641 3.075-7.425s-1.107-5.456-3.075-7.425c-1.969-1.968-4.641-3.075-7.425-3.075z" stroke="#000000" stroke-dasharray="0,65.97336791255663" stroke-dashoffset="65.973368"/></g><g fill="none" stroke-miterlimit="10"><path d="M1085.5 10.5l5 6 9-9" stroke="#385385" stroke-dasharray="7.701814401474192,12.836357335790321" stroke-dashoffset="20.538172"/><path d="M1092 1.5c-2.784 0-5.456 1.107-7.425 3.075-1.968 1.969-3.075 4.641-3.075 7.425s1.107 5.456 3.075 7.425c1.969 1.968 4.641 3.075 7.425 3.075s5.456-1.107 7.425-3.075c1.968-1.969 3.075-4.641 3.075-7.425s-1.107-5.456-3.075-7.425c-1.969-1.968-4.641-3.075-7.425-3.075z" stroke="#000000" stroke-dasharray="0,65.97336791255663" stroke-dashoffset="65.973368"/></g><g fill="none" stroke-miterlimit="10"><path d="M1109.5 10.5l5 6 9-9" stroke="#3a5689" stroke-dasharray="7.872965832618062,12.66520590464645" stroke-dashoffset="20.538172"/><path d="M1116 1.5c-2.784 0-5.456 1.107-7.425 3.075-1.968 1.969-3.075 4.641-3.075 7.425s1.107 5.456 3.075 7.425c1.969 1.968 4.641 3.075 7.425 3.075s5.456-1.107 7.425-3.075c1.968-1.969 3.075-4.641 3.075-7.425s-1.107-5.456-3.075-7.425c-1.969-1.968-4.641-3.075-7.425-3.075z" stroke="#000000" stroke-dasharray="0,65.97336791255663" stroke-dashoffset="65.973368"/></g><g fill="none" stroke-miterlimit="10"><path d="M1133.5 10.5l5 6 9-9" stroke="#3c598d" stroke-dasharray="8.044117263761935,12.49405447350258" stroke-dashoffset="20.538172"/><path d="M1140 1.5c-2.784 0-5.456 1.107-7.425 3.075-1.968 1.969-3.075 4.641-3.075 7.425s1.107 5.456 3.075 7.425c1.969 1.968 4.641 3.075 7.425 3.075s5.456-1.107 7.425-3.075c1.968-1.969 3.075-4.641 3.075-7.425s-1.107-5.456-3.075-7.425c-1.969-1.968-4.641-3.075-7.425-3.075z" stroke="#000000" stroke-dasharray="0,65.97336791255663" stroke-dashoffset="65.973368"/></g><g fill="none" stroke-miterlimit="10"><path d="M1157.5 10.5l5 6 9-9" stroke="#3d5b91" stroke-dasharray="8.215268694905806,12.322903042358707" stroke-dashoffset="20.538172"/><path d="M1164 1.5c-2.784 0-5.456 1.107-7.425 3.075-1.968 1.969-3.075 4.641-3.075 7.425s1.107 5.456 3.075 7.425c1.969 1.968 4.641 3.075 7.425 3.075s5.456-1.107 7.425-3.075c1.968-1.969 3.075-4.641 3.075-7.425s-1.107-5.456-3.075-7.425c-1.969-1.968-4.641-3.075-7.425-3.075z" stroke="#000000" stroke-dasharray="0,65.97336791255663" stroke-dashoffset="65.973368"/></g><g fill="none" stroke-miterlimit="10"><path d="M1181.5 10.5l5 6 9-9" stroke="#3f5e95" stroke-dasharray="8.386420126049677,12.151751611214836" stroke-dashoffset="20.538172"/><path d="M1188 1.5c-2.784 0-5.456 1.107-7.425 3.075-1.968 1.969-3.075 4.641-3.075 7.425s1.107 5.456 3.075 7.425c1.969 1.968 4.641 3.075 7.425 3.075s5.456-1.107 7.425-3.075c1.968-1.969 3.075-4.641 3.075-7.425s-1.107-5.456-3.075-7.425c-1.969-1.968-4.641-3.075-7.425-3.075z" stroke="#000000" stroke-dasharray="0,65.97336791255663" stroke-dashoffset="65.973368"/></g><g fill="none" stroke-miterlimit="10"><path d="M1205.5 10.5l5 6 9-9" stroke="#416099" stroke-dasharray="8.557571557193548,11.980600180070963" stroke-dashoffset="20.538172"/><path d="M1212 1.5c-2.784 0-5.456 1.107-7.425 3.075-1.968 1.969-3.075 4.641-3.075 7.425s1.107 5.456 3.075 7.425c1.969 1.968 4.641 3.075 7.425 3.075s5.456-1.107 7.425-3.075c1.968-1.969 3.075-4.641 3.075-7.425s-1.107-5.456-3.075-7.425c-1.969-1.968-4.641-3.075-7.425-3.075z" stroke="#000000" stroke-dasharray="0,65.97336791255663" stroke-dashoffset="65.973368"/></g><g fill="none" stroke-miterlimit="10"><path d="M1229.5 10.5l5 6 9-9" stroke="#42639d" stroke-dasharray="8.728722988337418,11.809448748927094" stroke-dashoffset="20.538172"/><path d="M1236 1.5c-2.784 0-5.456 1.107-7.425 3.075-1.968 1.969-3.075 4.641-3.075 7.425s1.107 5.456 3.075 7.425c1.969 1.968 4.641 3.075 7.425 3.075s5.456-1.107 7.425-3.075c1.968-1.969 3.075-4.641 3.075-7.425s-1.107-5.456-3.075-7.425c-1.969-1.968-4.641-3.075-7.425-3.075z" stroke="#000000" stroke-dasharray="0,65.97336791255663" stroke-dashoffset="65.973368"/></g><g fill="none" stroke-miterlimit="10"><path d="M1253.5 10.5l5 6 9-9" stroke="#4465a0" stroke-dasharray="8.899874419481288,11.638297317783223" stroke-dashoffset="20.538172"/><path d="M1260 1.5c-2.784 0-5.456 1.107-7.425 3.075-1.968 1.969-3.075 4.641-3.075 7.425s1.107 5.456 3.075 7.425c1.969 1.968 4.641 3.075 7.425 3.075s5.456-1.107 7.425-3.075c1.968-1.969 3.075-4.641 3.075-7.425s-1.107-5.456-3.075-7.425c-1.969-1.968-4.641-3.075-7.425-3.075z" stroke="#000000" stroke-dasharray="0,65.97336791255663" stroke-dashoffset="65.973368"/></g><g fill="none" stroke-miterlimit="10"><path d="M1277.5 10.5l5 6 9-9" stroke="#4567a4" stroke-dasharray="9.07102585062516,11.467145886639353" stroke-dashoffset="20.538172"/><path d="M1284 1.5c-2.784 0-5.456 1.107-7.425 3.075-1.968 1.969-3.075 4.641-3.075 7.425s1.107 5.456 3.075 7.425c1.969 1.968 4.641 3.075 7.425 3.075s5.456-1.107 7.425-3.075c1.968-1.969 3.075-4.641 3.075-7.425s-1.107-5.456-3.075-7.425c-1.969-1.968-4.641-3.075-7.425-3.075z" stroke="#000000" stroke-dasharray="0,65.97336791255663" stroke-dashoffset="65.973368"/></g><g fill="none" stroke-miterlimit="10"><path d="M1301.5 10.5l5 6 9-9" stroke="#4669a7" stroke-dasharray="9.242177281769031,11.295994455495483" stroke-dashoffset="20.538172"/><path d="M1308 1.5c-2.784 0-5.456 1.107-7.425 3.075-1.968 1.969-3.075 4.641-3.075 7.425s1.107 5.456 3.075 7.425c1.969 1.968 4.641 3.075 7.425 3.075s5.456-1.107 7.425-3.075c1.968-1.969 3.075-4.641 3.075-7.425s-1.107-5.456-3.075-7.425c-1.969-1.968-4.641-3.075-7.425-3.075z" stroke="#000000" stroke-dasharray="0,65.97336791255663" stroke-dashoffset="65.973368"/></g><g fill="none" stroke-miterlimit="10"><path d="M1325.5 10.5l5 6 9-9" stroke="#486baa" stroke-dasharray="9.413328712912902,11.12484302435161" stroke-dashoffset="20.538172"/><path d="M1332 1.5c-2.784 0-5.456 1.107-7.425 3.075-1.968 1.969-3.075 4.641-3.075 7.425s1.107 5.456 3.075 7.425c1.969 1.968 4.641 3.075 7.425 3.075s5.456-1.107 7.425-3.075c1.968-1.969 3.075-4.641 3.075-7.425s-1.107-5.456-3.075-7.425c-1.969-1.968-4.641-3.075-7.425-3.075z" stroke="#000000" stroke-dasharray="0,65.97336791255663" stroke-dashoffset="65.973368"/></g><g fill="none" stroke-miterlimit="10"><path d="M1349.5 10.5l5 6 9-9" stroke="#496dad" stroke-dasharray="9.584480144056773,10.95369159320774" stroke-dashoffset="20.538172"/><path d="M1356 1.5c-2.784 0-5.456 1.107-7.425 3.075-1.968 1.969-3.075 4.641-3.075 7.425s1.107 5.456 3.075 7.425c1.969 1.968 4.641 3.075 7.425 3.075s5.456-1.107 7.425-3.075c1.968-1.969 3.075-4.641 3.075-7.425s-1.107-5.456-3.075-7.425c-1.969-1.968-4.641-3.075-7.425-3.075z" stroke="#000000" stroke-dasharray="0,65.97336791255663" stroke-dashoffset="65.973368"/></g><g fill="none" stroke-miterlimit="10"><path d="M1373.5 10.5l5 6 9-9" stroke="#4a6fb0" stroke-dasharray="9.755631575200644,10.782540162063869" stroke-dashoffset="20.538172"/><path d="M1380 1.5c-2.784 0-5.456 1.107-7.425 3.075-1.968 1.969-3.075 4.641-3.075 7.425s1.107 5.456 3.075 7.425c1.969 1.968 4.641 3.075 7.425 3.075s5.456-1.107 7.425-3.075c1.968-1.969 3.075-4.641 3.075-7.425s-1.107-5.456-3.075-7.425c-1.969-1.968-4.641-3.075-7.425-3.075z" stroke="#000000" stroke-dasharray="0,65.97336791255663" stroke-dashoffset="65.973368"/></g><g fill="none" stroke-miterlimit="10"><path d="M1397.5 10.5l5 6 9-9" stroke="#4b70b3" stroke-dasharray="9.926783006344516,10.611388730919996" stroke-dashoffset="20.538172"/><path d="M1404 1.5c-2.784 0-5.456 1.107-7.425 3.075-1.968 1.969-3.075 4.641-3.075 7.425s1.107 5.456 3.075 7.425c1.969 1.968 4.641 3.075 7.425 3.075s5.456-1.107 7.425-3.075c1.968-1.969 3.075-4.641 3.075-7.425s-1.107-5.456-3.075-7.425c-1.969-1.968-4.641-3.075-7.425-3.075z" stroke="#000000" stroke-dasharray="0,65.97336791255663" stroke-dashoffset="65.973368"/></g><g fill="none" stroke-miterlimit="10"><path d="M1421.5 10.5l5 6 9-9" stroke="#4c72b5" stroke-dasharray="10.097934437488385,10.440237299776127" stroke-dashoffset="20.538172"/><path d="M1428 1.5c-2.784 0-5.456 1.107-7.425 3.075-1.968 1.969-3.075 4.641-3.075 7.425s1.107 5.456 3.075 7.425c1.969 1.968 4.641 3.075 7.425 3.075s5.456-1.107 7.425-3.075c1.968-1.969 3.075-4.641 3.075-7.425s-1.107-5.456-3.075-7.425c-1.969-1.968-4.641-3.075-7.425-3.075z" stroke="#000000" stroke-dasharray="0,65.97336791255663" stroke-dashoffset="65.973368"/></g><g fill="none" stroke-miterlimit="10"><path d="M1445.5 10.5l5 6 9-9" stroke="#4e74b8" stroke-dasharray="10.269085868632256,10.269085868632256" stroke-dashoffset="20.538172"/><path d="M1452 1.5c-2.784 0-5.456 1.107-7.425 3.075-1.968 1.969-3.075 4.641-3.075 7.425s1.107 5.456 3.075 7.425c1.969 1.968 4.641 3.075 7.425 3.075s5.456-1.107 7.425-3.075c1.968-1.969 3.075-4.641 3.075-7.425s-1.107-5.456-3.075-7.425c-1.969-1.968-4.641-3.075-7.425-3.075z" stroke="#000000" stroke-dasharray="0,65.97336791255663" stroke-dashoffset="65.973368"/></g><g fill="none" stroke-miterlimit="10"><path d="M1469.5 10.5l5 6 9-9" stroke="#4f75ba" stroke-dasharray="10.440237299776129,10.097934437488384" stroke-dashoffset="20.538172"/><path d="M1476 1.5c-2.784 0-5.456 1.107-7.425 3.075-1.968 1.969-3.075 4.641-3.075 7.425s1.107 5.456 3.075 7.425c1.969 1.968 4.641 3.075 7.425 3.075s5.456-1.107 7.425-3.075c1.968-1.969 3.075-4.641 3.075-7.425s-1.107-5.456-3.075-7.425c-1.969-1.968-4.641-3.075-7.425-3.075z" stroke="#000000" stroke-dasharray="0,65.97336791255663" stroke-dashoffset="65.973368"/></g><g fill="none" stroke-miterlimit="10"><path d="M1493.5 10.5l5 6 9-9" stroke="#5077bd" stroke-dasharray="10.611388730919996,9.926783006344516" stroke-dashoffset="20.538172"/><path d="M1500 1.5c-2.784 0-5.456 1.107-7.425 3.075-1.968 1.969-3.075 4.641-3.075 7.425s1.107 5.456 3.075 7.425c1.969 1.968 4.641 3.075 7.425 3.075s5.456-1.107 7.425-3.075c1.968-1.969 3.075-4.641 3.075-7.425s-1.107-5.456-3.075-7.425c-1.969-1.968-4.641-3.075-7.425-3.075z" stroke="#000000" stroke-dasharray="0,65.97336791255663" stroke-dashoffset="65.973368"/></g><g fill="none" stroke-miterlimit="10"><path d="M1517.5 10.5l5 6 9-9" stroke="#5178bf" stroke-dasharray="10.782540162063869,9.755631575200644" stroke-dashoffset="20.538172"/><path d="M1524 1.5c-2.784 0-5.456 1.107-7.425 3.075-1.968 1.969-3.075 4.641-3.075 7.425s1.107 5.456 3.075 7.425c1.969 1.968 4.641 3.075 7.425 3.075s5.456-1.107 7.425-3.075c1.968-1.969 3.075-4.641 3.075-7.425s-1.107-5.456-3.075-7.425c-1.969-1.968-4.641-3.075-7.425-3.075z" stroke="#000000" stroke-dasharray="0,65.97336791255663" stroke-dashoffset="65.973368"/></g><g fill="none" stroke-miterlimit="10"><path d="M1541.5 10.5l5 6 9-9" stroke="#5179c1" stroke-dasharray="10.95369159320774,9.584480144056773" stroke-dashoffset="20.538172"/><path d="M1548 1.5c-2.784 0-5.456 1.107-7.425 3.075-1.968 1.969-3.075 4.641-3.075 7.425s1.107 5.456 3.075 7.425c1.969 1.968 4.641 3.075 7.425 3.075s5.456-1.107 7.425-3.075c1.968-1.969 3.075-4.641 3.075-7.425s-1.107-5.456-3.075-7.425c-1.969-1.968-4.641-3.075-7.425-3.075z" stroke="#000000" stroke-dasharray="0,65.97336791255663" stroke-dashoffset="65.973368"/></g><g fill="none" stroke-miterlimit="10"><path d="M1565.5 10.5l5 6 9-9" stroke="#527bc3" stroke-dasharray="11.12484302435161,9.413328712912902" stroke-dashoffset="20.538172"/><path d="M1572 1.5c-2.784 0-5.456 1.107-7.425 3.075-1.968 1.969-3.075 4.641-3.075 7.425s1.107 5.456 3.075 7.425c1.969 1.968 4.641 3.075 7.425 3.075s5.456-1.107 7.425-3.075c1.968-1.969 3.075-4.641 3.075-7.425s-1.107-5.456-3.075-7.425c-1.969-1.968-4.641-3.075-7.425-3.075z" stroke="#000000" stroke-dasharray="0,65.97336791255663" stroke-dashoffset="65.973368"/></g><g fill="none" stroke-miterlimit="10"><path d="M1589.5 10.5l5 6 9-9" stroke="#537cc5" stroke-dasharray="11.295994455495483,9.24217728176903" stroke-dashoffset="20.538172"/><path d="M1596 1.5c-2.784 0-5.456 1.107-7.425 3.075-1.968 1.969-3.075 4.641-3.075 7.425s1.107 5.456 3.075 7.425c1.969 1.968 4.641 3.075 7.425 3.075s5.456-1.107 7.425-3.075c1.968-1.969 3.075-4.641 3.075-7.425s-1.107-5.456-3.075-7.425c-1.969-1.968-4.641-3.075-7.425-3.075z" stroke="#000000" stroke-dasharray="0,65.97336791255663" stroke-dashoffset="65.973368"/></g><g fill="none" stroke-miterlimit="10"><path d="M1613.5 10.5l5 6 9-9" stroke="#547dc7" stroke-dasharray="11.467145886639353,9.07102585062516" stroke-dashoffset="20.538172"/><path d="M1620 1.5c-2.784 0-5.456 1.107-7.425 3.075-1.968 1.969-3.075 4.641-3.075 7.425s1.107 5.456 3.075 7.425c1.969 1.968 4.641 3.075 7.425 3.075s5.456-1.107 7.425-3.075c1.968-1.969 3.075-4.641 3.075-7.425s-1.107-5.456-3.075-7.425c-1.969-1.968-4.641-3.075-7.425-3.075z" stroke="#000000" stroke-dasharray="0,65.97336791255663" stroke-dashoffset="65.973368"/></g><g fill="none" stroke-miterlimit="10"><path d="M1637.5 10.5l5 6 9-9" stroke="#557ec9" stroke-dasharray="11.638297317783223,8.89987441948129" stroke-dashoffset="20.538172"/><path d="M1644 1.5c-2.784 0-5.456 1.107-7.425 3.075-1.968 1.969-3.075 4.641-3.075 7.425s1.107 5.456 3.075 7.425c1.969 1.968 4.641 3.075 7.425 3.075s5.456-1.107 7.425-3.075c1.968-1.969 3.075-4.641 3.075-7.425s-1.107-5.456-3.075-7.425c-1.969-1.968-4.641-3.075-7.425-3.075z" stroke="#000000" stroke-dasharray="0,65.97336791255663" stroke-dashoffset="65.973368"/></g><g fill="none" stroke-miterlimit="10"><path d="M1661.5 10.5l5 6 9-9" stroke="#567fcb" stroke-dasharray="11.809448748927094,8.728722988337418" stroke-dashoffset="20.538172"/><path d="M1668 1.5c-2.784 0-5.456 1.107-7.425 3.075-1.968 1.969-3.075 4.641-3.075 7.425s1.107 5.456 3.075 7.425c1.969 1.968 4.641 3.075 7.425 3.075s5.456-1.107 7.425-3.075c1.968-1.969 3.075-4.641 3.075-7.425s-1.107-5.456-3.075-7.425c-1.969-1.968-4.641-3.075-7.425-3.075z" stroke="#000000" stroke-dasharray="0,65.97336791255663" stroke-dashoffset="65.973368"/></g><g fill="none" stroke-miterlimit="10"><path d="M1685.5 10.5l5 6 9-9" stroke="#5680cc" stroke-dasharray="11.980600180070967,8.557571557193546" stroke-dashoffset="20.538172"/><path d="M1692 1.5c-2.784 0-5.456 1.107-7.425 3.075-1.968 1.969-3.075 4.641-3.075 7.425s1.107 5.456 3.075 7.425c1.969 1.968 4.641 3.075 7.425 3.075s5.456-1.107 7.425-3.075c1.968-1.969 3.075-4.641 3.075-7.425s-1.107-5.456-3.075-7.425c-1.969-1.968-4.641-3.075-7.425-3.075z" stroke="#000000" stroke-dasharray="0,65.97336791255663" stroke-dashoffset="65.973368"/></g><g fill="none" stroke-miterlimit="10"><path d="M1709.5 10.5l5 6 9-9" stroke="#5782ce" stroke-dasharray="12.151751611214836,8.386420126049677" stroke-dashoffset="20.538172"/><path d="M1716 1.5c-2.784 0-5.456 1.107-7.425 3.075-1.968 1.969-3.075 4.641-3.075 7.425s1.107 5.456 3.075 7.425c1.969 1.968 4.641 3.075 7.425 3.075s5.456-1.107 7.425-3.075c1.968-1.969 3.075-4.641 3.075-7.425s-1.107-5.456-3.075-7.425c-1.969-1.968-4.641-3.075-7.425-3.075z" stroke="#000000" stroke-dasharray="0,65.97336791255663" stroke-dashoffset="65.973368"/></g><g fill="none" stroke-miterlimit="10"><path d="M1733.5 10.5l5 6 9-9" stroke="#5883d0" stroke-dasharray="12.322903042358707,8.215268694905806" stroke-dashoffset="20.538172"/><path d="M1740 1.5c-2.784 0-5.456 1.107-7.425 3.075-1.968 1.969-3.075 4.641-3.075 7.425s1.107 5.456 3.075 7.425c1.969 1.968 4.641 3.075 7.425 3.075s5.456-1.107 7.425-3.075c1.968-1.969 3.075-4.641 3.075-7.425s-1.107-5.456-3.075-7.425c-1.969-1.968-4.641-3.075-7.425-3.075z" stroke="#000000" stroke-dasharray="0,65.97336791255663" stroke-dashoffset="65.973368"/></g><g fill="none" stroke-miterlimit="10"><path d="M1757.5 10.5l5 6 9-9" stroke="#5883d1" stroke-dasharray="12.49405447350258,8.044117263761933" stroke-dashoffset="20.538172"/><path d="M1764 1.5c-2.784 0-5.456 1.107-7.425 3.075-1.968 1.969-3.075 4.641-3.075 7.425s1.107 5.456 3.075 7.425c1.969 1.968 4.641 3.075 7.425 3.075s5.456-1.107 7.425-3.075c1.968-1.969 3.075-4.641 3.075-7.425s-1.107-5.456-3.075-7.425c-1.969-1.968-4.641-3.075-7.425-3.075z" stroke="#000000" stroke-dasharray="0,65.97336791255663" stroke-dashoffset="65.973368"/></g><g fill="none" stroke-miterlimit="10"><path d="M1781.5 10.5l5 6 9-9" stroke="#5984d3" stroke-dasharray="12.665205904646449,7.872965832618065" stroke-dashoffset="20.538172"/><path d="M1788 1.5c-2.784 0-5.456 1.107-7.425 3.075-1.968 1.969-3.075 4.641-3.075 7.425s1.107 5.456 3.075 7.425c1.969 1.968 4.641 3.075 7.425 3.075s5.456-1.107 7.425-3.075c1.968-1.969 3.075-4.641 3.075-7.425s-1.107-5.456-3.075-7.425c-1.969-1.968-4.641-3.075-7.425-3.075z" stroke="#000000" stroke-dasharray="0,65.97336791255663" stroke-dashoffset="65.973368"/></g><g fill="none" stroke-miterlimit="10"><path d="M1805.5 10.5l5 6 9-9" stroke="#5985d4" stroke-dasharray="12.836357335790321,7.701814401474192" stroke-dashoffset="20.538172"/><path d="M1812 1.5c-2.784 0-5.456 1.107-7.425 3.075-1.968 1.969-3.075 4.641-3.075 7.425s1.107 5.456 3.075 7.425c1.969 1.968 4.641 3.075 7.425 3.075s5.456-1.107 7.425-3.075c1.968-1.969 3.075-4.641 3.075-7.425s-1.107-5.456-3.075-7.425c-1.969-1.968-4.641-3.075-7.425-3.075z" stroke="#000000" stroke-dasharray="0,65.97336791255663" stroke-dashoffset="65.973368"/></g><g fill="none" stroke-miterlimit="10"><path d="M1829.5 10.5l5 6 9-9" stroke="#5a86d5" stroke-dasharray="13.007508766934192,7.53066297033032" stroke-dashoffset="20.538172"/><path d="M1836 1.5c-2.784 0-5.456 1.107-7.425 3.075-1.968 1.969-3.075 4.641-3.075 7.425s1.107 5.456 3.075 7.425c1.969 1.968 4.641 3.075 7.425 3.075s5.456-1.107 7.425-3.075c1.968-1.969 3.075-4.641 3.075-7.425s-1.107-5.456-3.075-7.425c-1.969-1.968-4.641-3.075-7.425-3.075z" stroke="#000000" stroke-dasharray="0,65.97336791255663" stroke-dashoffset="65.973368"/></g><g fill="none" stroke-miterlimit="10"><path d="M1853.5 10.5l5 6 9-9" stroke="#5b87d7" stroke-dasharray="13.178660198078061,7.359511539186451" stroke-dashoffset="20.538172"/><path d="M1860 1.5c-2.784 0-5.456 1.107-7.425 3.075-1.968 1.969-3.075 4.641-3.075 7.425s1.107 5.456 3.075 7.425c1.969 1.968 4.641 3.075 7.425 3.075s5.456-1.107 7.425-3.075c1.968-1.969 3.075-4.641 3.075-7.425s-1.107-5.456-3.075-7.425c-1.969-1.968-4.641-3.075-7.425-3.075z" stroke="#000000" stroke-dasharray="0,65.97336791255663" stroke-dashoffset="65.973368"/></g><g fill="none" stroke-miterlimit="10"><path d="M1877.5 10.5l5 6 9-9" stroke="#5b88d8" stroke-dasharray="13.349811629221934,7.188360108042579" stroke-dashoffset="20.538172"/><path d="M1884 1.5c-2.784 0-5.456 1.107-7.425 3.075-1.968 1.969-3.075 4.641-3.075 7.425s1.107 5.456 3.075 7.425c1.969 1.968 4.641 3.075 7.425 3.075s5.456-1.107 7.425-3.075c1.968-1.969 3.075-4.641 3.075-7.425s-1.107-5.456-3.075-7.425c-1.969-1.968-4.641-3.075-7.425-3.075z" stroke="#000000" stroke-dasharray="0,65.97336791255663" stroke-dashoffset="65.973368"/></g><g fill="none" stroke-miterlimit="10"><path d="M1901.5 10.5l5 6 9-9" stroke="#5c88d9" stroke-dasharray="13.520963060365805,7.017208676898709" stroke-dashoffset="20.538172"/><path d="M1908 1.5c-2.784 0-5.456 1.107-7.425 3.075-1.968 1.969-3.075 4.641-3.075 7.425s1.107 5.456 3.075 7.425c1.969 1.968 4.641 3.075 7.425 3.075s5.456-1.107 7.425-3.075c1.968-1.969 3.075-4.641 3.075-7.425s-1.107-5.456-3.075-7.425c-1.969-1.968-4.641-3.075-7.425-3.075z" stroke="#000000" stroke-dasharray="0,65.97336791255663" stroke-dashoffset="65.973368"/></g><g fill="none" stroke-miterlimit="10"><path d="M1925.5 10.5l5 6 9-9" stroke="#5c89da" stroke-dasharray="13.692114491509674,6.846057245754839" stroke-dashoffset="20.538172"/><path d="M1932 1.5c-2.784 0-5.456 1.107-7.425 3.075-1.968 1.969-3.075 4.641-3.075 7.425s1.107 5.456 3.075 7.425c1.969 1.968 4.641 3.075 7.425 3.075s5.456-1.107 7.425-3.075c1.968-1.969 3.075-4.641 3.075-7.425s-1.107-5.456-3.075-7.425c-1.969-1.968-4.641-3.075-7.425-3.075z" stroke="#000000" stroke-dasharray="0,65.97336791255663" stroke-dashoffset="65.973368"/></g><g fill="none" stroke-miterlimit="10"><path d="M1949.5 10.5l5 6 9-9" stroke="#5d8adb" stroke-dasharray="13.863265922653547,6.674905814610966" stroke-dashoffset="20.538172"/><path d="M1956 1.5c-2.784 0-5.456 1.107-7.425 3.075-1.968 1.969-3.075 4.641-3.075 7.425s1.107 5.456 3.075 7.425c1.969 1.968 4.641 3.075 7.425 3.075s5.456-1.107 7.425-3.075c1.968-1.969 3.075-4.641 3.075-7.425s-1.107-5.456-3.075-7.425c-1.969-1.968-4.641-3.075-7.425-3.075z" stroke="#000000" stroke-dasharray="0,65.97336791255663" stroke-dashoffset="65.973368"/></g><g fill="none" stroke-miterlimit="10"><path d="M1973.5 10.5l5 6 9-9" stroke="#5d8bdc" stroke-dasharray="14.034417353797418,6.503754383467095" stroke-dashoffset="20.538172"/><path d="M1980 1.5c-2.784 0-5.456 1.107-7.425 3.075-1.968 1.969-3.075 4.641-3.075 7.425s1.107 5.456 3.075 7.425c1.969 1.968 4.641 3.075 7.425 3.075s5.456-1.107 7.425-3.075c1.968-1.969 3.075-4.641 3.075-7.425s-1.107-5.456-3.075-7.425c-1.969-1.968-4.641-3.075-7.425-3.075z" stroke="#000000" stroke-dasharray="0,65.97336791255663" stroke-dashoffset="65.973368"/></g><g fill="none" stroke-miterlimit="10"><path d="M1997.5 10.5l5 6 9-9" stroke="#5d8bdd" stroke-dasharray="14.20556878494129,6.332602952323223" stroke-dashoffset="20.538172"/><path d="M2004 1.5c-2.784 0-5.456 1.107-7.425 3.075-1.968 1.969-3.075 4.641-3.075 7.425s1.107 5.456 3.075 7.425c1.969 1.968 4.641 3.075 7.425 3.075s5.456-1.107 7.425-3.075c1.968-1.969 3.075-4.641 3.075-7.425s-1.107-5.456-3.075-7.425c-1.969-1.968-4.641-3.075-7.425-3.075z" stroke="#000000" stroke-dasharray="0,65.97336791255663" stroke-dashoffset="65.973368"/></g><g fill="none" stroke-miterlimit="10"><path d="M2021.5 10.5l5 6 9-9" stroke="#5e8cde" stroke-dasharray="14.376720216085157,6.161451521179354" stroke-dashoffset="20.538172"/><path d="M2028 1.5c-2.784 0-5.456 1.107-7.425 3.075-1.968 1.969-3.075 4.641-3.075 7.425s1.107 5.456 3.075 7.425c1.969 1.968 4.641 3.075 7.425 3.075s5.456-1.107 7.425-3.075c1.968-1.969 3.075-4.641 3.075-7.425s-1.107-5.456-3.075-7.425c-1.969-1.968-4.641-3.075-7.425-3.075z" stroke="#000000" stroke-dasharray="0,65.97336791255663" stroke-dashoffset="65.973368"/></g><g fill="none" stroke-miterlimit="10"><path d="M2045.5 10.5l5 6 9-9" stroke="#5e8cdf" stroke-dasharray="14.54787164722903,5.990300090035482" stroke-dashoffset="20.538172"/><path d="M2052 1.5c-2.784 0-5.456 1.107-7.425 3.075-1.968 1.969-3.075 4.641-3.075 7.425s1.107 5.456 3.075 7.425c1.969 1.968 4.641 3.075 7.425 3.075s5.456-1.107 7.425-3.075c1.968-1.969 3.075-4.641 3.075-7.425s-1.107-5.456-3.075-7.425c-1.969-1.968-4.641-3.075-7.425-3.075z" stroke="#000000" stroke-dasharray="0,65.97336791255663" stroke-dashoffset="65.973368"/></g><g fill="none" stroke-miterlimit="10"><path d="M2069.5 10.5l5 6 9-9" stroke="#5f8de0" stroke-dasharray="14.719023078372903,5.81914865889161" stroke-dashoffset="20.538172"/><path d="M2076 1.5c-2.784 0-5.456 1.107-7.425 3.075-1.968 1.969-3.075 4.641-3.075 7.425s1.107 5.456 3.075 7.425c1.969 1.968 4.641 3.075 7.425 3.075s5.456-1.107 7.425-3.075c1.968-1.969 3.075-4.641 3.075-7.425s-1.107-5.456-3.075-7.425c-1.969-1.968-4.641-3.075-7.425-3.075z" stroke="#000000" stroke-dasharray="0,65.97336791255663" stroke-dashoffset="65.973368"/></g><g fill="none" stroke-miterlimit="10"><path d="M2093.5 10.5l5 6 9-9" stroke="#5f8de1" stroke-dasharray="14.890174509516772,5.647997227747742" stroke-dashoffset="20.538172"/><path d="M2100 1.5c-2.784 0-5.456 1.107-7.425 3.075-1.968 1.969-3.075 4.641-3.075 7.425s1.107 5.456 3.075 7.425c1.969 1.968 4.641 3.075 7.425 3.075s5.456-1.107 7.425-3.075c1.968-1.969 3.075-4.641 3.075-7.425s-1.107-5.456-3.075-7.425c-1.969-1.968-4.641-3.075-7.425-3.075z" stroke="#000000" stroke-dasharray="0,65.97336791255663" stroke-dashoffset="65.973368"/></g><g fill="none" stroke-miterlimit="10"><path d="M2117.5 10.5l5 6 9-9" stroke="#5f8ee2" stroke-dasharray="15.061325940660641,5.476845796603871" stroke-dashoffset="20.538172"/><path d="M2124 1.5c-2.784 0-5.456 1.107-7.425 3.075-1.968 1.969-3.075 4.641-3.075 7.425s1.107 5.456 3.075 7.425c1.969 1.968 4.641 3.075 7.425 3.075s5.456-1.107 7.425-3.075c1.968-1.969 3.075-4.641 3.075-7.425s-1.107-5.456-3.075-7.425c-1.969-1.968-4.641-3.075-7.425-3.075z" stroke="#000000" stroke-dasharray="0,65.97336791255663" stroke-dashoffset="65.973368"/></g><g fill="none" stroke-miterlimit="10"><path d="M2141.5 10.5l5 6 9-9" stroke="#608ee3" stroke-dasharray="15.232477371804514,5.305694365459998" stroke-dashoffset="20.538172"/><path d="M2148 1.5c-2.784 0-5.456 1.107-7.425 3.075-1.968 1.969-3.075 4.641-3.075 7.425s1.107 5.456 3.075 7.425c1.969 1.968 4.641 3.075 7.425 3.075s5.456-1.107 7.425-3.075c1.968-1.969 3.075-4.641 3.075-7.425s-1.107-5.456-3.075-7.425c-1.969-1.968-4.641-3.075-7.425-3.075z" stroke="#000000" stroke-dasharray="0,65.97336791255663" stroke-dashoffset="65.973368"/></g><g fill="none" stroke-miterlimit="10"><path d="M2165.5 10.5l5 6 9-9" stroke="#608fe3" stroke-dasharray="15.403628802948385,5.134542934316128" stroke-dashoffset="20.538172"/><path d="M2172 1.5c-2.784 0-5.456 1.107-7.425 3.075-1.968 1.969-3.075 4.641-3.075 7.425s1.107 5.456 3.075 7.425c1.969 1.968 4.641 3.075 7.425 3.075s5.456-1.107 7.425-3.075c1.968-1.969 3.075-4.641 3.075-7.425s-1.107-5.456-3.075-7.425c-1.969-1.968-4.641-3.075-7.425-3.075z" stroke="#000000" stroke-dasharray="0,65.97336791255663" stroke-dashoffset="65.973368"/></g><g fill="none" stroke-miterlimit="10"><path d="M2189.5 10.5l5 6 9-9" stroke="#608fe4" stroke-dasharray="15.574780234092255,4.963391503172258" stroke-dashoffset="20.538172"/><path d="M2196 1.5c-2.784 0-5.456 1.107-7.425 3.075-1.968 1.969-3.075 4.641-3.075 7.425s1.107 5.456 3.075 7.425c1.969 1.968 4.641 3.075 7.425 3.075s5.456-1.107 7.425-3.075c1.968-1.969 3.075-4.641 3.075-7.425s-1.107-5.456-3.075-7.425c-1.969-1.968-4.641-3.075-7.425-3.075z" stroke="#000000" stroke-dasharray="0,65.97336791255663" stroke-dashoffset="65.973368"/></g><g fill="none" stroke-miterlimit="10"><path d="M2213.5 10.5l5 6 9-9" stroke="#6190e5" stroke-dasharray="15.745931665236125,4.792240072028387" stroke-dashoffset="20.538172"/><path d="M2220 1.5c-2.784 0-5.456 1.107-7.425 3.075-1.968 1.969-3.075 4.641-3.075 7.425s1.107 5.456 3.075 7.425c1.969 1.968 4.641 3.075 7.425 3.075s5.456-1.107 7.425-3.075c1.968-1.969 3.075-4.641 3.075-7.425s-1.107-5.456-3.075-7.425c-1.969-1.968-4.641-3.075-7.425-3.075z" stroke="#000000" stroke-dasharray="0,65.97336791255663" stroke-dashoffset="65.973368"/></g><g fill="none" stroke-miterlimit="10"><path d="M2237.5 10.5l5 6 9-9" stroke="#6190e5" stroke-dasharray="15.91708309638,4.621088640884513" stroke-dashoffset="20.538172"/><path d="M2244 1.5c-2.784 0-5.456 1.107-7.425 3.075-1.968 1.969-3.075 4.641-3.075 7.425s1.107 5.456 3.075 7.425c1.969 1.968 4.641 3.075 7.425 3.075s5.456-1.107 7.425-3.075c1.968-1.969 3.075-4.641 3.075-7.425s-1.107-5.456-3.075-7.425c-1.969-1.968-4.641-3.075-7.425-3.075z" stroke="#000000" stroke-dasharray="0,65.97336791255663" stroke-dashoffset="65.973368"/></g><g fill="none" stroke-miterlimit="10"><path d="M2261.5 10.5l5 6 9-9" stroke="#6191e6" stroke-dasharray="16.08823452752387,4.449937209740645" stroke-dashoffset="20.538172"/><path d="M2268 1.5c-2.784 0-5.456 1.107-7.425 3.075-1.968 1.969-3.075 4.641-3.075 7.425s1.107 5.456 3.075 7.425c1.969 1.968 4.641 3.075 7.425 3.075s5.456-1.107 7.425-3.075c1.968-1.969 3.075-4.641 3.075-7.425s-1.107-5.456-3.075-7.425c-1.969-1.968-4.641-3.075-7.425-3.075z" stroke="#000000" stroke-dasharray="0,65.97336791255663" stroke-dashoffset="65.973368"/></g><g fill="none" stroke-miterlimit="10"><path d="M2285.5 10.5l5 6 9-9" stroke="#6191e7" stroke-dasharray="16.25938595866774,4.278785778596775" stroke-dashoffset="20.538172"/><path d="M2292 1.5c-2.784 0-5.456 1.107-7.425 3.075-1.968 1.969-3.075 4.641-3.075 7.425s1.107 5.456 3.075 7.425c1.969 1.968 4.641 3.075 7.425 3.075s5.456-1.107 7.425-3.075c1.968-1.969 3.075-4.641 3.075-7.425s-1.107-5.456-3.075-7.425c-1.969-1.968-4.641-3.075-7.425-3.075z" stroke="#000000" stroke-dasharray="0,65.97336791255663" stroke-dashoffset="65.973368"/></g><g fill="none" stroke-miterlimit="10"><path d="M2309.5 10.5l5 6 9-9" stroke="#6291e7" stroke-dasharray="16.43053738981161,4.107634347452902" stroke-dashoffset="20.538172"/><path d="M2316 1.5c-2.784 0-5.456 1.107-7.425 3.075-1.968 1.969-3.075 4.641-3.075 7.425s1.107 5.456 3.075 7.425c1.969 1.968 4.641 3.075 7.425 3.075s5.456-1.107 7.425-3.075c1.968-1.969 3.075-4.641 3.075-7.425s-1.107-5.456-3.075-7.425c-1.969-1.968-4.641-3.075-7.425-3.075z" stroke="#000000" stroke-dasharray="0,65.97336791255663" stroke-dashoffset="65.973368"/></g><g fill="none" stroke-miterlimit="10"><path d="M2333.5 10.5l5 6 9-9" stroke="#6292e8" stroke-dasharray="16.60168882095548,3.936482916309034" stroke-dashoffset="20.538172"/><path d="M2340 1.5c-2.784 0-5.456 1.107-7.425 3.075-1.968 1.969-3.075 4.641-3.075 7.425s1.107 5.456 3.075 7.425c1.969 1.968 4.641 3.075 7.425 3.075s5.456-1.107 7.425-3.075c1.968-1.969 3.075-4.641 3.075-7.425s-1.107-5.456-3.075-7.425c-1.969-1.968-4.641-3.075-7.425-3.075z" stroke="#000000" stroke-dasharray="0,65.97336791255663" stroke-dashoffset="65.973368"/></g><g fill="none" stroke-miterlimit="10"><path d="M2357.5 10.5l5 6 9-9" stroke="#6292e8" stroke-dasharray="16.772840252099353,3.765331485165161" stroke-dashoffset="20.538172"/><path d="M2364 1.5c-2.784 0-5.456 1.107-7.425 3.075-1.968 1.969-3.075 4.641-3.075 7.425s1.107 5.456 3.075 7.425c1.969 1.968 4.641 3.075 7.425 3.075s5.456-1.107 7.425-3.075c1.968-1.969 3.075-4.641 3.075-7.425s-1.107-5.456-3.075-7.425c-1.969-1.968-4.641-3.075-7.425-3.075z" stroke="#000000" stroke-dasharray="0,65.97336791255663" stroke-dashoffset="65.973368"/></g><g fill="none" stroke-miterlimit="10"><path d="M2381.5 10.5l5 6 9-9" stroke="#6292e9" stroke-dasharray="16.943991683243226,3.5941800540212885" stroke-dashoffset="20.538172"/><path d="M2388 1.5c-2.784 0-5.456 1.107-7.425 3.075-1.968 1.969-3.075 4.641-3.075 7.425s1.107 5.456 3.075 7.425c1.969 1.968 4.641 3.075 7.425 3.075s5.456-1.107 7.425-3.075c1.968-1.969 3.075-4.641 3.075-7.425s-1.107-5.456-3.075-7.425c-1.969-1.968-4.641-3.075-7.425-3.075z" stroke="#000000" stroke-dasharray="0,65.97336791255663" stroke-dashoffset="65.973368"/></g><g fill="none" stroke-miterlimit="10"><path d="M2405.5 10.5l5 6 9-9" stroke="#6293e9" stroke-dasharray="17.115143114387095,3.423028622877418" stroke-dashoffset="20.538172"/><path d="M2412 1.5c-2.784 0-5.456 1.107-7.425 3.075-1.968 1.969-3.075 4.641-3.075 7.425s1.107 5.456 3.075 7.425c1.969 1.968 4.641 3.075 7.425 3.075s5.456-1.107 7.425-3.075c1.968-1.969 3.075-4.641 3.075-7.425s-1.107-5.456-3.075-7.425c-1.969-1.968-4.641-3.075-7.425-3.075z" stroke="#000000" stroke-dasharray="0,65.97336791255663" stroke-dashoffset="65.973368"/></g><g fill="none" stroke-miterlimit="10"><path d="M2429.5 10.5l5 6 9-9" stroke="#6393e9" stroke-dasharray="17.286294545530964,3.2518771917335476" stroke-dashoffset="20.538172"/><path d="M2436 1.5c-2.784 0-5.456 1.107-7.425 3.075-1.968 1.969-3.075 4.641-3.075 7.425s1.107 5.456 3.075 7.425c1.969 1.968 4.641 3.075 7.425 3.075s5.456-1.107 7.425-3.075c1.968-1.969 3.075-4.641 3.075-7.425s-1.107-5.456-3.075-7.425c-1.969-1.968-4.641-3.075-7.425-3.075z" stroke="#000000" stroke-dasharray="0,65.97336791255663" stroke-dashoffset="65.973368"/></g><g fill="none" stroke-miterlimit="10"><path d="M2453.5 10.5l5 6 9-9" stroke="#6393ea" stroke-dasharray="17.457445976674837,3.080725760589677" stroke-dashoffset="20.538172"/><path d="M2460 1.5c-2.784 0-5.456 1.107-7.425 3.075-1.968 1.969-3.075 4.641-3.075 7.425s1.107 5.456 3.075 7.425c1.969 1.968 4.641 3.075 7.425 3.075s5.456-1.107 7.425-3.075c1.968-1.969 3.075-4.641 3.075-7.425s-1.107-5.456-3.075-7.425c-1.969-1.968-4.641-3.075-7.425-3.075z" stroke="#000000" stroke-dasharray="0,65.97336791255663" stroke-dashoffset="65.973368"/></g><g fill="none" stroke-miterlimit="10"><path d="M2477.5 10.5l5 6 9-9" stroke="#6393ea" stroke-dasharray="17.628597407818706,2.909574329445807" stroke-dashoffset="20.538172"/><path d="M2484 1.5c-2.784 0-5.456 1.107-7.425 3.075-1.968 1.969-3.075 4.641-3.075 7.425s1.107 5.456 3.075 7.425c1.969 1.968 4.641 3.075 7.425 3.075s5.456-1.107 7.425-3.075c1.968-1.969 3.075-4.641 3.075-7.425s-1.107-5.456-3.075-7.425c-1.969-1.968-4.641-3.075-7.425-3.075z" stroke="#000000" stroke-dasharray="0,65.97336791255663" stroke-dashoffset="65.973368"/></g><g fill="none" stroke-miterlimit="10"><path d="M2501.5 10.5l5 6 9-9" stroke="#6393eb" stroke-dasharray="17.799748838962575,2.7384228983019367" stroke-dashoffset="20.538172"/><path d="M2508 1.5c-2.784 0-5.456 1.107-7.425 3.075-1.968 1.969-3.075 4.641-3.075 7.425s1.107 5.456 3.075 7.425c1.969 1.968 4.641 3.075 7.425 3.075s5.456-1.107 7.425-3.075c1.968-1.969 3.075-4.641 3.075-7.425s-1.107-5.456-3.075-7.425c-1.969-1.968-4.641-3.075-7.425-3.075z" stroke="#000000" stroke-dasharray="0,65.97336791255663" stroke-dashoffset="65.973368"/></g><g fill="none" stroke-miterlimit="10"><path d="M2525.5 10.5l5 6 9-9" stroke="#6394eb" stroke-dasharray="17.970900270106448,2.567271467158064" stroke-dashoffset="20.538172"/><path d="M2532 1.5c-2.784 0-5.456 1.107-7.425 3.075-1.968 1.969-3.075 4.641-3.075 7.425s1.107 5.456 3.075 7.425c1.969 1.968 4.641 3.075 7.425 3.075s5.456-1.107 7.425-3.075c1.968-1.969 3.075-4.641 3.075-7.425s-1.107-5.456-3.075-7.425c-1.969-1.968-4.641-3.075-7.425-3.075z" stroke="#000000" stroke-dasharray="0,65.97336791255663" stroke-dashoffset="65.973368"/></g><g fill="none" stroke-miterlimit="10"><path d="M2549.5 10.5l5 6 9-9" stroke="#6394eb" stroke-dasharray="18.14205170125032,2.3961200360141914" stroke-dashoffset="20.538172"/><path d="M2556 1.5c-2.784 0-5.456 1.107-7.425 3.075-1.968 1.969-3.075 4.641-3.075 7.425s1.107 5.456 3.075 7.425c1.969 1.968 4.641 3.075 7.425 3.075s5.456-1.107 7.425-3.075c1.968-1.969 3.075-4.641 3.075-7.425s-1.107-5.456-3.075-7.425c-1.969-1.968-4.641-3.075-7.425-3.075z" stroke="#000000" stroke-dasharray="0,65.97336791255663" stroke-dashoffset="65.973368"/></g><g fill="none" stroke-miterlimit="10"><path d="M2573.5 10.5l5 6 9-9" stroke="#6394eb" stroke-dasharray="18.31320313239419,2.224968604870323" stroke-dashoffset="20.538172"/><path d="M2580 1.5c-2.784 0-5.456 1.107-7.425 3.075-1.968 1.969-3.075 4.641-3.075 7.425s1.107 5.456 3.075 7.425c1.969 1.968 4.641 3.075 7.425 3.075s5.456-1.107 7.425-3.075c1.968-1.969 3.075-4.641 3.075-7.425s-1.107-5.456-3.075-7.425c-1.969-1.968-4.641-3.075-7.425-3.075z" stroke="#000000" stroke-dasharray="0,65.97336791255663" stroke-dashoffset="65.973368"/></g><g fill="none" stroke-miterlimit="10"><path d="M2597.5 10.5l5 6 9-9" stroke="#6394ec" stroke-dasharray="18.484354563538062,2.053817173726451" stroke-dashoffset="20.538172"/><path d="M2604 1.5c-2.784 0-5.456 1.107-7.425 3.075-1.968 1.969-3.075 4.641-3.075 7.425s1.107 5.456 3.075 7.425c1.969 1.968 4.641 3.075 7.425 3.075s5.456-1.107 7.425-3.075c1.968-1.969 3.075-4.641 3.075-7.425s-1.107-5.456-3.075-7.425c-1.969-1.968-4.641-3.075-7.425-3.075z" stroke="#000000" stroke-dasharray="0,65.97336791255663" stroke-dashoffset="65.973368"/></g><g fill="none" stroke-miterlimit="10"><path d="M2621.5 10.5l5 6 9-9" stroke="#6494ec" stroke-dasharray="18.65550599468193,1.8826657425825828" stroke-dashoffset="20.538172"/><path d="M2628 1.5c-2.784 0-5.456 1.107-7.425 3.075-1.968 1.969-3.075 4.641-3.075 7.425s1.107 5.456 3.075 7.425c1.969 1.968 4.641 3.075 7.425 3.075s5.456-1.107 7.425-3.075c1.968-1.969 3.075-4.641 3.075-7.425s-1.107-5.456-3.075-7.425c-1.969-1.968-4.641-3.075-7.425-3.075z" stroke="#000000" stroke-dasharray="0,65.97336791255663" stroke-dashoffset="65.973368"/></g><g fill="none" stroke-miterlimit="10"><path d="M2645.5 10.5l5 6 9-9" stroke="#6494ec" stroke-dasharray="18.826657425825804,1.711514311438708" stroke-dashoffset="20.538172"/><path d="M2652 1.5c-2.784 0-5.456 1.107-7.425 3.075-1.968 1.969-3.075 4.641-3.075 7.425s1.107 5.456 3.075 7.425c1.969 1.968 4.641 3.075 7.425 3.075s5.456-1.107 7.425-3.075c1.968-1.969 3.075-4.641 3.075-7.425s-1.107-5.456-3.075-7.425c-1.969-1.968-4.641-3.075-7.425-3.075z" stroke="#000000" stroke-dasharray="0,65.97336791255663" stroke-dashoffset="65.973368"/></g><g fill="none" stroke-miterlimit="10"><path d="M2669.5 10.5l5 6 9-9" stroke="#6495ec" stroke-dasharray="18.997808856969677,1.5403628802948375" stroke-dashoffset="20.538172"/><path d="M2676 1.5c-2.784 0-5.456 1.107-7.425 3.075-1.968 1.969-3.075 4.641-3.075 7.425s1.107 5.456 3.075 7.425c1.969 1.968 4.641 3.075 7.425 3.075s5.456-1.107 7.425-3.075c1.968-1.969 3.075-4.641 3.075-7.425s-1.107-5.456-3.075-7.425c-1.969-1.968-4.641-3.075-7.425-3.075z" stroke="#000000" stroke-dasharray="0,65.97336791255663" stroke-dashoffset="65.973368"/></g><g fill="none" stroke-miterlimit="10"><path d="M2693.5 10.5l5 6 9-9" stroke="#6495ec" stroke-dasharray="19.168960288113546,1.3692114491509673" stroke-dashoffset="20.538172"/><path d="M2700 1.5c-2.784 0-5.456 1.107-7.425 3.075-1.968 1.969-3.075 4.641-3.075 7.425s1.107 5.456 3.075 7.425c1.969 1.968 4.641 3.075 7.425 3.075s5.456-1.107 7.425-3.075c1.968-1.969 3.075-4.641 3.075-7.425s-1.107-5.456-3.075-7.425c-1.969-1.968-4.641-3.075-7.425-3.075z" stroke="#000000" stroke-dasharray="0,65.97336791255663" stroke-dashoffset="65.973368"/></g><g fill="none" stroke-miterlimit="10"><path d="M2717.5 10.5l5 6 9-9" stroke="#6495ed" stroke-dasharray="19.340111719257415,1.1980600180070968" stroke-dashoffset="20.538172"/><path d="M2724 1.5c-2.784 0-5.456 1.107-7.425 3.075-1.968 1.969-3.075 4.641-3.075 7.425s1.107 5.456 3.075 7.425c1.969 1.968 4.641 3.075 7.425 3.075s5.456-1.107 7.425-3.075c1.968-1.969 3.075-4.641 3.075-7.425s-1.107-5.456-3.075-7.425c-1.969-1.968-4.641-3.075-7.425-3.075z" stroke="#000000" stroke-dasharray="0,65.97336791255663" stroke-dashoffset="65.973368"/></g><g fill="none" stroke-miterlimit="10"><path d="M2741.5 10.5l5 6 9-9" stroke="#6495ed" stroke-dasharray="19.511263150401287,1.0269085868632266" stroke-dashoffset="20.538172"/><path d="M2748 1.5c-2.784 0-5.456 1.107-7.425 3.075-1.968 1.969-3.075 4.641-3.075 7.425s1.107 5.456 3.075 7.425c1.969 1.968 4.641 3.075 7.425 3.075s5.456-1.107 7.425-3.075c1.968-1.969 3.075-4.641 3.075-7.425s-1.107-5.456-3.075-7.425c-1.969-1.968-4.641-3.075-7.425-3.075z" stroke="#000000" stroke-dasharray="0,65.97336791255663" stroke-dashoffset="65.973368"/></g><g fill="none" stroke-miterlimit="10"><path d="M2765.5 10.5l5 6 9-9" stroke="#6495ed" stroke-dasharray="19.682414581545157,0.8557571557193562" stroke-dashoffset="20.538172"/><path d="M2772 1.5c-2.784 0-5.456 1.107-7.425 3.075-1.968 1.969-3.075 4.641-3.075 7.425s1.107 5.456 3.075 7.425c1.969 1.968 4.641 3.075 7.425 3.075s5.456-1.107 7.425-3.075c1.968-1.969 3.075-4.641 3.075-7.425s-1.107-5.456-3.075-7.425c-1.969-1.968-4.641-3.075-7.425-3.075z" stroke="#000000" stroke-dasharray="0,65.97336791255663" stroke-dashoffset="65.973368"/></g><g fill="none" stroke-miterlimit="10"><path d="M2789.5 10.5l5 6 9-9" stroke="#6495ed" stroke-dasharray="19.853566012689033,0.6846057245754813" stroke-dashoffset="20.538172"/><path d="M2796 1.5c-2.784 0-5.456 1.107-7.425 3.075-1.968 1.969-3.075 4.641-3.075 7.425s1.107 5.456 3.075 7.425c1.969 1.968 4.641 3.075 7.425 3.075s5.456-1.107 7.425-3.075c1.968-1.969 3.075-4.641 3.075-7.425s-1.107-5.456-3.075-7.425c-1.969-1.968-4.641-3.075-7.425-3.075z" stroke="#000000" stroke-dasharray="0,65.97336791255663" stroke-dashoffset="65.973368"/></g><g fill="none" stroke-miterlimit="10"><path d="M2813.5 10.5l5 6 9-9" stroke="#6495ed" stroke-dasharray="20.0247174438329,0.5134542934316133" stroke-dashoffset="20.538172"/><path d="M2820 1.5c-2.784 0-5.456 1.107-7.425 3.075-1.968 1.969-3.075 4.641-3.075 7.425s1.107 5.456 3.075 7.425c1.969 1.968 4.641 3.075 7.425 3.075s5.456-1.107 7.425-3.075c1.968-1.969 3.075-4.641 3.075-7.425s-1.107-5.456-3.075-7.425c-1.969-1.968-4.641-3.075-7.425-3.075z" stroke="#000000" stroke-dasharray="0,65.97336791255663" stroke-dashoffset="65.973368"/></g><g fill="none" stroke-miterlimit="10"><path d="M2837.5 10.5l5 6 9-9" stroke="#6495ed" stroke-dasharray="20.19586887497677,0.34230286228774065" stroke-dashoffset="20.538172"/><path d="M2844 1.5c-2.784 0-5.456 1.107-7.425 3.075-1.968 1.969-3.075 4.641-3.075 7.425s1.107 5.456 3.075 7.425c1.969 1.968 4.641 3.075 7.425 3.075s5.456-1.107 7.425-3.075c1.968-1.969 3.075-4.641 3.075-7.425s-1.107-5.456-3.075-7.425c-1.969-1.968-4.641-3.075-7.425-3.075z" stroke="#000000" stroke-dasharray="0,65.97336791255663" stroke-dashoffset="65.973368"/></g><g fill="none" stroke-miterlimit="10"><path d="M2861.5 10.5l5 6 9-9" stroke="#6495ed" stroke-dasharray="20.36702030612064,0.1711514311438726" stroke-dashoffset="20.538172"/><path d="M2868 1.5c-2.784 0-5.456 1.107-7.425 3.075-1.968 1.969-3.075 4.641-3.075 7.425s1.107 5.456 3.075 7.425c1.969 1.968 4.641 3.075 7.425 3.075s5.456-1.107 7.425-3.075c1.968-1.969 3.075-4.641 3.075-7.425s-1.107-5.456-3.075-7.425c-1.969-1.968-4.641-3.075-7.425-3.075z" stroke="#000000" stroke-dasharray="0,65.97336791255663" stroke-dashoffset="65.973368"/></g><g fill="none" stroke-miterlimit="10"><path d="M2885.5 10.5l5 6 9-9" stroke="#6495ed"/><path d="M2892 1.5c-2.784 0-5.456 1.107-7.425 3.075-1.968 1.969-3.075 4.641-3.075 7.425s1.107 5.456 3.075 7.425c1.969 1.968 4.641 3.075 7.425 3.075s5.456-1.107 7.425-3.075c1.968-1.969 3.075-4.641 3.075-7.425s-1.107-5.456-3.075-7.425c-1.969-1.968-4.641-3.075-7.425-3.075z" stroke="#000000" stroke-dasharray="0,65.97336791255663" stroke-dashoffset="65.973368"/></g><g fill="none" stroke-miterlimit="10"><path d="M2909.5 10.5l5 6 9-9" stroke="#6495ed"/><path d="M2916 1.5c-2.784 0-5.456 1.107-7.425 3.075-1.968 1.969-3.075 4.641-3.075 7.425s1.107 5.456 3.075 7.425c1.969 1.968 4.641 3.075 7.425 3.075s5.456-1.107 7.425-3.075c1.968-1.969 3.075-4.641 3.075-7.425s-1.107-5.456-3.075-7.425c-1.969-1.968-4.641-3.075-7.425-3.075z" stroke="#020204" stroke-dasharray="1.0995561318759488,64.87381178068068" stroke-dashoffset="65.973368"/></g><g fill="none" stroke-miterlimit="10"><path d="M2933.5 10.5l5 6 9-9" stroke="#6495ed"/><path d="M2940 1.5c-2.784 0-5.456 1.107-7.425 3.075-1.968 1.969-3.075 4.641-3.075 7.425s1.107 5.456 3.075 7.425c1.969 1.968 4.641 3.075 7.425 3.075s5.456-1.107 7.425-3.075c1.968-1.969 3.075-4.641 3.075-7.425s-1.107-5.456-3.075-7.425c-1.969-1.968-4.641-3.075-7.425-3.075z" stroke="#030508" stroke-dasharray="2.1991122637518976,63.77425564880473" stroke-dashoffset="65.973368"/></g><g fill="none" stroke-miterlimit="10"><path d="M2957.5 10.5l5 6 9-9" stroke="#6495ed"/><path d="M2964 1.5c-2.784 0-5.456 1.107-7.425 3.075-1.968 1.969-3.075 4.641-3.075 7.425s1.107 5.456 3.075 7.425c1.969 1.968 4.641 3.075 7.425 3.075s5.456-1.107 7.425-3.075c1.968-1.969 3.075-4.641 3.075-7.425s-1.107-5.456-3.075-7.425c-1.969-1.968-4.641-3.075-7.425-3.075z" stroke="#05070c" stroke-dasharray="3.2986683956278315,62.67469951692879" stroke-dashoffset="65.973368"/></g><g fill="none" stroke-miterlimit="10"><path d="M2981.5 10.5l5 6 9-9" stroke="#6495ed"/><path d="M2988 1.5c-2.784 0-5.456 1.107-7.425 3.075-1.968 1.969-3.075 4.641-3.075 7.425s1.107 5.456 3.075 7.425c1.969 1.968 4.641 3.075 7.425 3.075s5.456-1.107 7.425-3.075c1.968-1.969 3.075-4.641 3.075-7.425s-1.107-5.456-3.075-7.425c-1.969-1.968-4.641-3.075-7.425-3.075z" stroke="#070a10" stroke-dasharray="4.398224527503765,61.57514338505286" stroke-dashoffset="65.973368"/></g><g fill="none" stroke-miterlimit="10"><path d="M3005.5 10.5l5 6 9-9" stroke="#6495ed"/><path d="M3012 1.5c-2.784 0-5.456 1.107-7.425 3.075-1.968 1.969-3.075 4.641-3.075 7.425s1.107 5.456 3.075 7.425c1.969 1.968 4.641 3.075 7.425 3.075s5.456-1.107 7.425-3.075c1.968-1.969 3.075-4.641 3.075-7.425s-1.107-5.456-3.075-7.425c-1.969-1.968-4.641-3.075-7.425-3.075z" stroke="#080c14" stroke-dasharray="5.497780659379728,60.4755872531769" stroke-dashoffset="65.973368"/></g><g fill="none" stroke-miterlimit="10"><path d="M3029.5 10.5l5 6 9-9" stroke="#6495ed"/><path d="M3036 1.5c-2.784 0-5.456 1.107-7.425 3.075-1.968 1.969-3.075 4.641-3.075 7.425s1.107 5.456 3.075 7.425c1.969 1.968 4.641 3.075 7.425 3.075s5.456-1.107 7.425-3.075c1.968-1.969 3.075-4.641 3.075-7.425s-1.107-5.456-3.075-7.425c-1.969-1.968-4.641-3.075-7.425-3.075z" stroke="#0a0f18" stroke-dasharray="6.597336791255663,59.37603112130096" stroke-dashoffset="65.973368"/></g><g fill="none" stroke-miterlimit="10"><path d="M3053.5 10.5l5 6 9-9" stroke="#6495ed"/><path d="M3060 1.5c-2.784 0-5.456 1.107-7.425 3.075-1.968 1.969-3.075 4.641-3.075 7.425s1.107 5.456 3.075 7.425c1.969 1.968 4.641 3.075 7.425 3.075s5.456-1.107 7.425-3.075c1.968-1.969 3.075-4.641 3.075-7.425s-1.107-5.456-3.075-7.425c-1.969-1.968-4.641-3.075-7.425-3.075z" stroke="#0c111c" stroke-dasharray="7.696892923131626,58.276474989425004" stroke-dashoffset="65.973368"/></g><g fill="none" stroke-miterlimit="10"><path d="M3077.5 10.5l5 6 9-9" stroke="#6495ed"/><path d="M3084 1.5c-2.784 0-5.456 1.107-7.425 3.075-1.968 1.969-3.075 4.641-3.075 7.425s1.107 5.456 3.075 7.425c1.969 1.968 4.641 3.075 7.425 3.075s5.456-1.107 7.425-3.075c1.968-1.969 3.075-4.641 3.075-7.425s-1.107-5.456-3.075-7.425c-1.969-1.968-4.641-3.075-7.425-3.075z" stroke="#0d1420" stroke-dasharray="8.79644905500756,57.17691885754906" stroke-dashoffset="65.973368"/></g><g fill="none" stroke-miterlimit="10"><path d="M3101.5 10.5l5 6 9-9" stroke="#6495ed"/><path d="M3108 1.5c-2.784 0-5.456 1.107-7.425 3.075-1.968 1.969-3.075 4.641-3.075 7.425s1.107 5.456 3.075 7.425c1.969 1.968 4.641 3.075 7.425 3.075s5.456-1.107 7.425-3.075c1.968-1.969 3.075-4.641 3.075-7.425s-1.107-5.456-3.075-7.425c-1.969-1.968-4.641-3.075-7.425-3.075z" stroke="#0f1624" stroke-dasharray="9.896005186883494,56.07736272567313" stroke-dashoffset="65.973368"/></g><g fill="none" stroke-miterlimit="10"><path d="M3125.5 10.5l5 6 9-9" stroke="#6495ed"/><path d="M3132 1.5c-2.784 0-5.456 1.107-7.425 3.075-1.968 1.969-3.075 4.641-3.075 7.425s1.107 5.456 3.075 7.425c1.969 1.968 4.641 3.075 7.425 3.075s5.456-1.107 7.425-3.075c1.968-1.969 3.075-4.641 3.075-7.425s-1.107-5.456-3.075-7.425c-1.969-1.968-4.641-3.075-7.425-3.075z" stroke="#111927" stroke-dasharray="10.995561318759428,54.9778065937972" stroke-dashoffset="65.973368"/></g><g fill="none" stroke-miterlimit="10"><path d="M3149.5 10.5l5 6 9-9" stroke="#6495ed"/><path d="M3156 1.5c-2.784 0-5.456 1.107-7.425 3.075-1.968 1.969-3.075 4.641-3.075 7.425s1.107 5.456 3.075 7.425c1.969 1.968 4.641 3.075 7.425 3.075s5.456-1.107 7.425-3.075c1.968-1.969 3.075-4.641 3.075-7.425s-1.107-5.456-3.075-7.425c-1.969-1.968-4.641-3.075-7.425-3.075z" stroke="#121b2b" stroke-dasharray="12.095117450635362,53.87825046192126" stroke-dashoffset="65.973368"/></g><g fill="none" stroke-miterlimit="10"><path d="M3173.5 10.5l5 6 9-9" stroke="#6495ed"/><path d="M3180 1.5c-2.784 0-5.456 1.107-7.425 3.075-1.968 1.969-3.075 4.641-3.075 7.425s1.107 5.456 3.075 7.425c1.969 1.968 4.641 3.075 7.425 3.075s5.456-1.107 7.425-3.075c1.968-1.969 3.075-4.641 3.075-7.425s-1.107-5.456-3.075-7.425c-1.969-1.968-4.641-3.075-7.425-3.075z" stroke="#141e2f" stroke-dasharray="13.194673582511326,52.778694330045305" stroke-dashoffset="65.973368"/></g><g fill="none" stroke-miterlimit="10"><path d="M3197.5 10.5l5 6 9-9" stroke="#6495ed"/><path d="M3204 1.5c-2.784 0-5.456 1.107-7.425 3.075-1.968 1.969-3.075 4.641-3.075 7.425s1.107 5.456 3.075 7.425c1.969 1.968 4.641 3.075 7.425 3.075s5.456-1.107 7.425-3.075c1.968-1.969 3.075-4.641 3.075-7.425s-1.107-5.456-3.075-7.425c-1.969-1.968-4.641-3.075-7.425-3.075z" stroke="#162033" stroke-dasharray="14.29422971438729,51.67913819816933" stroke-dashoffset="65.973368"/></g><g fill="none" stroke-miterlimit="10"><path d="M3221.5 10.5l5 6 9-9" stroke="#6495ed"/><path d="M3228 1.5c-2.784 0-5.456 1.107-7.425 3.075-1.968 1.969-3.075 4.641-3.075 7.425s1.107 5.456 3.075 7.425c1.969 1.968 4.641 3.075 7.425 3.075s5.456-1.107 7.425-3.075c1.968-1.969 3.075-4.641 3.075-7.425s-1.107-5.456-3.075-7.425c-1.969-1.968-4.641-3.075-7.425-3.075z" stroke="#172337" stroke-dasharray="15.393785846263222,50.579582066293405" stroke-dashoffset="65.973368"/></g><g fill="none" stroke-miterlimit="10"><path d="M3245.5 10.5l5 6 9-9" stroke="#6495ed"/><path d="M3252 1.5c-2.784 0-5.456 1.107-7.425 3.075-1.968 1.969-3.075 4.641-3.075 7.425s1.107 5.456 3.075 7.425c1.969 1.968 4.641 3.075 7.425 3.075s5.456-1.107 7.425-3.075c1.968-1.969 3.075-4.641 3.075-7.425s-1.107-5.456-3.075-7.425c-1.969-1.968-4.641-3.075-7.425-3.075z" stroke="#19253b" stroke-dasharray="16.493341978139156,49.48002593441747" stroke-dashoffset="65.973368"/></g><g fill="none" stroke-miterlimit="10"><path d="M3269.5 10.5l5 6 9-9" stroke="#6495ed"/><path d="M3276 1.5c-2.784 0-5.456 1.107-7.425 3.075-1.968 1.969-3.075 4.641-3.075 7.425s1.107 5.456 3.075 7.425c1.969 1.968 4.641 3.075 7.425 3.075s5.456-1.107 7.425-3.075c1.968-1.969 3.075-4.641 3.075-7.425s-1.107-5.456-3.075-7.425c-1.969-1.968-4.641-3.075-7.425-3.075z" stroke="#1b283f" stroke-dasharray="17.59289811001509,48.38046980254153" stroke-dashoffset="65.973368"/></g><g fill="none" stroke-miterlimit="10"><path d="M3293.5 10.5l5 6 9-9" stroke="#6495ed"/><path d="M3300 1.5c-2.784 0-5.456 1.107-7.425 3.075-1.968 1.969-3.075 4.641-3.075 7.425s1.107 5.456 3.075 7.425c1.969 1.968 4.641 3.075 7.425 3.075s5.456-1.107 7.425-3.075c1.968-1.969 3.075-4.641 3.075-7.425s-1.107-5.456-3.075-7.425c-1.969-1.968-4.641-3.075-7.425-3.075z" stroke="#1c2a43" stroke-dasharray="18.692454241891024,47.280913670665605" stroke-dashoffset="65.973368"/></g><g fill="none" stroke-miterlimit="10"><path d="M3317.5 10.5l5 6 9-9" stroke="#6495ed"/><path d="M3324 1.5c-2.784 0-5.456 1.107-7.425 3.075-1.968 1.969-3.075 4.641-3.075 7.425s1.107 5.456 3.075 7.425c1.969 1.968 4.641 3.075 7.425 3.075s5.456-1.107 7.425-3.075c1.968-1.969 3.075-4.641 3.075-7.425s-1.107-5.456-3.075-7.425c-1.969-1.968-4.641-3.075-7.425-3.075z" stroke="#1e2d47" stroke-dasharray="19.79201037376699,46.181357538789634" stroke-dashoffset="65.973368"/></g><g fill="none" stroke-miterlimit="10"><path d="M3341.5 10.5l5 6 9-9" stroke="#6495ed"/><path d="M3348 1.5c-2.784 0-5.456 1.107-7.425 3.075-1.968 1.969-3.075 4.641-3.075 7.425s1.107 5.456 3.075 7.425c1.969 1.968 4.641 3.075 7.425 3.075s5.456-1.107 7.425-3.075c1.968-1.969 3.075-4.641 3.075-7.425s-1.107-5.456-3.075-7.425c-1.969-1.968-4.641-3.075-7.425-3.075z" stroke="#202f4b" stroke-dasharray="20.891566505642952,45.08180140691368" stroke-dashoffset="65.973368"/></g><g fill="none" stroke-miterlimit="10"><path d="M3365.5 10.5l5 6 9-9" stroke="#6495ed"/><path d="M3372 1.5c-2.784 0-5.456 1.107-7.425 3.075-1.968 1.969-3.075 4.641-3.075 7.425s1.107 5.456 3.075 7.425c1.969 1.968 4.641 3.075 7.425 3.075s5.456-1.107 7.425-3.075c1.968-1.969 3.075-4.641 3.075-7.425s-1.107-5.456-3.075-7.425c-1.969-1.968-4.641-3.075-7.425-3.075z" stroke="#21324f" stroke-dasharray="21.991122637518885,43.98224527503774" stroke-dashoffset="65.973368"/></g><g fill="none" stroke-miterlimit="10"><path d="M3389.5 10.5l5 6 9-9" stroke="#6495ed"/><path d="M3396 1.5c-2.784 0-5.456 1.107-7.425 3.075-1.968 1.969-3.075 4.641-3.075 7.425s1.107 5.456 3.075 7.425c1.969 1.968 4.641 3.075 7.425 3.075s5.456-1.107 7.425-3.075c1.968-1.969 3.075-4.641 3.075-7.425s-1.107-5.456-3.075-7.425c-1.969-1.968-4.641-3.075-7.425-3.075z" stroke="#233453" stroke-dasharray="23.090678769394817,42.882689143161805" stroke-dashoffset="65.973368"/></g><g fill="none" stroke-miterlimit="10"><path d="M3413.5 10.5l5 6 9-9" stroke="#6495ed"/><path d="M3420 1.5c-2.784 0-5.456 1.107-7.425 3.075-1.968 1.969-3.075 4.641-3.075 7.425s1.107 5.456 3.075 7.425c1.969 1.968 4.641 3.075 7.425 3.075s5.456-1.107 7.425-3.075c1.968-1.969 3.075-4.641 3.075-7.425s-1.107-5.456-3.075-7.425c-1.969-1.968-4.641-3.075-7.425-3.075z" stroke="#253757" stroke-dasharray="24.190234901270752,41.78313301128588" stroke-dashoffset="65.973368"/></g><g fill="none" stroke-miterlimit="10"><path d="M3437.5 10.5l5 6 9-9" stroke="#6495ed"/><path d="M3444 1.5c-2.784 0-5.456 1.107-7.425 3.075-1.968 1.969-3.075 4.641-3.075 7.425s1.107 5.456 3.075 7.425c1.969 1.968 4.641 3.075 7.425 3.075s5.456-1.107 7.425-3.075c1.968-1.969 3.075-4.641 3.075-7.425s-1.107-5.456-3.075-7.425c-1.969-1.968-4.641-3.075-7.425-3.075z" stroke="#26395b" stroke-dasharray="25.289791033146685,40.683576879409934" stroke-dashoffset="65.973368"/></g><g fill="none" stroke-miterlimit="10"><path d="M3461.5 10.5l5 6 9-9" stroke="#6495ed"/><path d="M3468 1.5c-2.784 0-5.456 1.107-7.425 3.075-1.968 1.969-3.075 4.641-3.075 7.425s1.107 5.456 3.075 7.425c1.969 1.968 4.641 3.075 7.425 3.075s5.456-1.107 7.425-3.075c1.968-1.969 3.075-4.641 3.075-7.425s-1.107-5.456-3.075-7.425c-1.969-1.968-4.641-3.075-7.425-3.075z" stroke="#283c5f" stroke-dasharray="26.389347165022652,39.58402074753398" stroke-dashoffset="65.973368"/></g><g fill="none" stroke-miterlimit="10"><path d="M3485.5 10.5l5 6 9-9" stroke="#6495ed"/><path d="M3492 1.5c-2.784 0-5.456 1.107-7.425 3.075-1.968 1.969-3.075 4.641-3.075 7.425s1.107 5.456 3.075 7.425c1.969 1.968 4.641 3.075 7.425 3.075s5.456-1.107 7.425-3.075c1.968-1.969 3.075-4.641 3.075-7.425s-1.107-5.456-3.075-7.425c-1.969-1.968-4.641-3.075-7.425-3.075z" stroke="#2a3e63" stroke-dasharray="27.488903296898584,38.48446461565804" stroke-dashoffset="65.973368"/></g><g fill="none" stroke-miterlimit="10"><path d="M3509.5 10.5l5 6 9-9" stroke="#6495ed"/><path d="M3516 1.5c-2.784 0-5.456 1.107-7.425 3.075-1.968 1.969-3.075 4.641-3.075 7.425s1.107 5.456 3.075 7.425c1.969 1.968 4.641 3.075 7.425 3.075s5.456-1.107 7.425-3.075c1.968-1.969 3.075-4.641 3.075-7.425s-1.107-5.456-3.075-7.425c-1.969-1.968-4.641-3.075-7.425-3.075z" stroke="#2b4167" stroke-dasharray="28.588459428774545,37.38490848378208" stroke-dashoffset="65.973368"/></g><g fill="none" stroke-miterlimit="10"><path d="M3533.5 10.5l5 6 9-9" stroke="#6495ed"/><path d="M3540 1.5c-2.784 0-5.456 1.107-7.425 3.075-1.968 1.969-3.075 4.641-3.075 7.425s1.107 5.456 3.075 7.425c1.969 1.968 4.641 3.075 7.425 3.075s5.456-1.107 7.425-3.075c1.968-1.969 3.075-4.641 3.075-7.425s-1.107-5.456-3.075-7.425c-1.969-1.968-4.641-3.075-7.425-3.075z" stroke="#2d436b" stroke-dasharray="29.68801556065048,36.28535235190615" stroke-dashoffset="65.973368"/></g><g fill="none" stroke-miterlimit="10"><path d="M3557.5 10.5l5 6 9-9" stroke="#6495ed"/><path d="M3564 1.5c-2.784 0-5.456 1.107-7.425 3.075-1.968 1.969-3.075 4.641-3.075 7.425s1.107 5.456 3.075 7.425c1.969 1.968 4.641 3.075 7.425 3.075s5.456-1.107 7.425-3.075c1.968-1.969 3.075-4.641 3.075-7.425s-1.107-5.456-3.075-7.425c-1.969-1.968-4.641-3.075-7.425-3.075z" stroke="#2f466f" stroke-dasharray="30.787571692526416,35.185796220030205" stroke-dashoffset="65.973368"/></g><g fill="none" stroke-miterlimit="10"><path d="M3581.5 10.5l5 6 9-9" stroke="#6495ed"/><path d="M3588 1.5c-2.784 0-5.456 1.107-7.425 3.075-1.968 1.969-3.075 4.641-3.075 7.425s1.107 5.456 3.075 7.425c1.969 1.968 4.641 3.075 7.425 3.075s5.456-1.107 7.425-3.075c1.968-1.969 3.075-4.641 3.075-7.425s-1.107-5.456-3.075-7.425c-1.969-1.968-4.641-3.075-7.425-3.075z" stroke="#304873" stroke-dasharray="31.88712782440235,34.086240088154284" stroke-dashoffset="65.973368"/></g><g fill="none" stroke-miterlimit="10"><path d="M3605.5 10.5l5 6 9-9" stroke="#6495ed"/><path d="M3612 1.5c-2.784 0-5.456 1.107-7.425 3.075-1.968 1.969-3.075 4.641-3.075 7.425s1.107 5.456 3.075 7.425c1.969 1.968 4.641 3.075 7.425 3.075s5.456-1.107 7.425-3.075c1.968-1.969 3.075-4.641 3.075-7.425s-1.107-5.456-3.075-7.425c-1.969-1.968-4.641-3.075-7.425-3.075z" stroke="#324b77" stroke-dasharray="32.98668395627831,32.98668395627831" stroke-dashoffset="65.973368"/></g><g fill="none" stroke-miterlimit="10"><path d="M3629.5 10.5l5 6 9-9" stroke="#6495ed"/><path d="M3636 1.5c-2.784 0-5.456 1.107-7.425 3.075-1.968 1.969-3.075 4.641-3.075 7.425s1.107 5.456 3.075 7.425c1.969 1.968 4.641 3.075 7.425 3.075s5.456-1.107 7.425-3.075c1.968-1.969 3.075-4.641 3.075-7.425s-1.107-5.456-3.075-7.425c-1.969-1.968-4.641-3.075-7.425-3.075z" stroke="#344d7a" stroke-dasharray="34.08624008815425,31.88712782440238" stroke-dashoffset="65.973368"/></g><g fill="none" stroke-miterlimit="10"><path d="M3653.5 10.5l5 6 9-9" stroke="#6495ed"/><path d="M3660 1.5c-2.784 0-5.456 1.107-7.425 3.075-1.968 1.969-3.075 4.641-3.075 7.425s1.107 5.456 3.075 7.425c1.969 1.968 4.641 3.075 7.425 3.075s5.456-1.107 7.425-3.075c1.968-1.969 3.075-4.641 3.075-7.425s-1.107-5.456-3.075-7.425c-1.969-1.968-4.641-3.075-7.425-3.075z" stroke="#354f7e" stroke-dasharray="35.185796220030205,30.78757169252642" stroke-dashoffset="65.973368"/></g><g fill="none" stroke-miterlimit="10"><path d="M3677.5 10.5l5 6 9-9" stroke="#6495ed"/><path d="M3684 1.5c-2.784 0-5.456 1.107-7.425 3.075-1.968 1.969-3.075 4.641-3.075 7.425s1.107 5.456 3.075 7.425c1.969 1.968 4.641 3.075 7.425 3.075s5.456-1.107 7.425-3.075c1.968-1.969 3.075-4.641 3.075-7.425s-1.107-5.456-3.075-7.425c-1.969-1.968-4.641-3.075-7.425-3.075z" stroke="#375282" stroke-dasharray="36.28535235190615,29.688015560650477" stroke-dashoffset="65.973368"/></g><g fill="none" stroke-miterlimit="10"><path d="M3701.5 10.5l5 6 9-9" stroke="#6495ed"/><path d="M3708 1.5c-2.784 0-5.456 1.107-7.425 3.075-1.968 1.969-3.075 4.641-3.075 7.425s1.107 5.456 3.075 7.425c1.969 1.968 4.641 3.075 7.425 3.075s5.456-1.107 7.425-3.075c1.968-1.969 3.075-4.641 3.075-7.425s-1.107-5.456-3.075-7.425c-1.969-1.968-4.641-3.075-7.425-3.075z" stroke="#395486" stroke-dasharray="37.38490848378208,28.588459428774545" stroke-dashoffset="65.973368"/></g><g fill="none" stroke-miterlimit="10"><path d="M3725.5 10.5l5 6 9-9" stroke="#6495ed"/><path d="M3732 1.5c-2.784 0-5.456 1.107-7.425 3.075-1.968 1.969-3.075 4.641-3.075 7.425s1.107 5.456 3.075 7.425c1.969 1.968 4.641 3.075 7.425 3.075s5.456-1.107 7.425-3.075c1.968-1.969 3.075-4.641 3.075-7.425s-1.107-5.456-3.075-7.425c-1.969-1.968-4.641-3.075-7.425-3.075z" stroke="#3a578a" stroke-dasharray="38.48446461565804,27.488903296898584" stroke-dashoffset="65.973368"/></g><g fill="none" stroke-miterlimit="10"><path d="M3749.5 10.5l5 6 9-9" stroke="#6495ed"/><path d="M3756 1.5c-2.784 0-5.456 1.107-7.425 3.075-1.968 1.969-3.075 4.641-3.075 7.425s1.107 5.456 3.075 7.425c1.969 1.968 4.641 3.075 7.425 3.075s5.456-1.107 7.425-3.075c1.968-1.969 3.075-4.641 3.075-7.425s-1.107-5.456-3.075-7.425c-1.969-1.968-4.641-3.075-7.425-3.075z" stroke="#3c598e" stroke-dasharray="39.58402074753398,26.389347165022652" stroke-dashoffset="65.973368"/></g><g fill="none" stroke-miterlimit="10"><path d="M3773.5 10.5l5 6 9-9" stroke="#6495ed"/><path d="M3780 1.5c-2.784 0-5.456 1.107-7.425 3.075-1.968 1.969-3.075 4.641-3.075 7.425s1.107 5.456 3.075 7.425c1.969 1.968 4.641 3.075 7.425 3.075s5.456-1.107 7.425-3.075c1.968-1.969 3.075-4.641 3.075-7.425s-1.107-5.456-3.075-7.425c-1.969-1.968-4.641-3.075-7.425-3.075z" stroke="#3e5c92" stroke-dasharray="40.683576879409905,25.28979103314672" stroke-dashoffset="65.973368"/></g><g fill="none" stroke-miterlimit="10"><path d="M3797.5 10.5l5 6 9-9" stroke="#6495ed"/><path d="M3804 1.5c-2.784 0-5.456 1.107-7.425 3.075-1.968 1.969-3.075 4.641-3.075 7.425s1.107 5.456 3.075 7.425c1.969 1.968 4.641 3.075 7.425 3.075s5.456-1.107 7.425-3.075c1.968-1.969 3.075-4.641 3.075-7.425s-1.107-5.456-3.075-7.425c-1.969-1.968-4.641-3.075-7.425-3.075z" stroke="#3f5e96" stroke-dasharray="41.78313301128588,24.19023490127075" stroke-dashoffset="65.973368"/></g><g fill="none" stroke-miterlimit="10"><path d="M3821.5 10.5l5 6 9-9" stroke="#6495ed"/><path d="M3828 1.5c-2.784 0-5.456 1.107-7.425 3.075-1.968 1.969-3.075 4.641-3.075 7.425s1.107 5.456 3.075 7.425c1.969 1.968 4.641 3.075 7.425 3.075s5.456-1.107 7.425-3.075c1.968-1.969 3.075-4.641 3.075-7.425s-1.107-5.456-3.075-7.425c-1.969-1.968-4.641-3.075-7.425-3.075z" stroke="#41619a" stroke-dasharray="42.882689143161805,23.090678769394817" stroke-dashoffset="65.973368"/></g><g fill="none" stroke-miterlimit="10"><path d="M3845.5 10.5l5 6 9-9" stroke="#6495ed"/><path d="M3852 1.5c-2.784 0-5.456 1.107-7.425 3.075-1.968 1.969-3.075 4.641-3.075 7.425s1.107 5.456 3.075 7.425c1.969 1.968 4.641 3.075 7.425 3.075s5.456-1.107 7.425-3.075c1.968-1.969 3.075-4.641 3.075-7.425s-1.107-5.456-3.075-7.425c-1.969-1.968-4.641-3.075-7.425-3.075z" stroke="#43639e" stroke-dasharray="43.98224527503774,21.991122637518885" stroke-dashoffset="65.973368"/></g><g fill="none" stroke-miterlimit="10"><path d="M3869.5 10.5l5 6 9-9" stroke="#6495ed"/><path d="M3876 1.5c-2.784 0-5.456 1.107-7.425 3.075-1.968 1.969-3.075 4.641-3.075 7.425s1.107 5.456 3.075 7.425c1.969 1.968 4.641 3.075 7.425 3.075s5.456-1.107 7.425-3.075c1.968-1.969 3.075-4.641 3.075-7.425s-1.107-5.456-3.075-7.425c-1.969-1.968-4.641-3.075-7.425-3.075z" stroke="#4466a2" stroke-dasharray="45.081801406913705,20.891566505642924" stroke-dashoffset="65.973368"/></g><g fill="none" stroke-miterlimit="10"><path d="M3893.5 10.5l5 6 9-9" stroke="#6495ed"/><path d="M3900 1.5c-2.784 0-5.456 1.107-7.425 3.075-1.968 1.969-3.075 4.641-3.075 7.425s1.107 5.456 3.075 7.425c1.969 1.968 4.641 3.075 7.425 3.075s5.456-1.107 7.425-3.075c1.968-1.969 3.075-4.641 3.075-7.425s-1.107-5.456-3.075-7.425c-1.969-1.968-4.641-3.075-7.425-3.075z" stroke="#4668a6" stroke-dasharray="46.181357538789634,19.792010373766992" stroke-dashoffset="65.973368"/></g><g fill="none" stroke-miterlimit="10"><path d="M3917.5 10.5l5 6 9-9" stroke="#6495ed"/><path d="M3924 1.5c-2.784 0-5.456 1.107-7.425 3.075-1.968 1.969-3.075 4.641-3.075 7.425s1.107 5.456 3.075 7.425c1.969 1.968 4.641 3.075 7.425 3.075s5.456-1.107 7.425-3.075c1.968-1.969 3.075-4.641 3.075-7.425s-1.107-5.456-3.075-7.425c-1.969-1.968-4.641-3.075-7.425-3.075z" stroke="#486baa" stroke-dasharray="47.280913670665576,18.69245424189105" stroke-dashoffset="65.973368"/></g><g fill="none" stroke-miterlimit="10"><path d="M3941.5 10.5l5 6 9-9" stroke="#6495ed"/><path d="M3948 1.5c-2.784 0-5.456 1.107-7.425 3.075-1.968 1.969-3.075 4.641-3.075 7.425s1.107 5.456 3.075 7.425c1.969 1.968 4.641 3.075 7.425 3.075s5.456-1.107 7.425-3.075c1.968-1.969 3.075-4.641 3.075-7.425s-1.107-5.456-3.075-7.425c-1.969-1.968-4.641-3.075-7.425-3.075z" stroke="#496dae" stroke-dasharray="48.38046980254153,17.59289811001509" stroke-dashoffset="65.973368"/></g><g fill="none" stroke-miterlimit="10"><path d="M3965.5 10.5l5 6 9-9" stroke="#6495ed"/><path d="M3972 1.5c-2.784 0-5.456 1.107-7.425 3.075-1.968 1.969-3.075 4.641-3.075 7.425s1.107 5.456 3.075 7.425c1.969 1.968 4.641 3.075 7.425 3.075s5.456-1.107 7.425-3.075c1.968-1.969 3.075-4.641 3.075-7.425s-1.107-5.456-3.075-7.425c-1.969-1.968-4.641-3.075-7.425-3.075z" stroke="#4b70b2" stroke-dasharray="49.48002593441747,16.493341978139156" stroke-dashoffset="65.973368"/></g><g fill="none" stroke-miterlimit="10"><path d="M3989.5 10.5l5 6 9-9" stroke="#6495ed"/><path d="M3996 1.5c-2.784 0-5.456 1.107-7.425 3.075-1.968 1.969-3.075 4.641-3.075 7.425s1.107 5.456 3.075 7.425c1.969 1.968 4.641 3.075 7.425 3.075s5.456-1.107 7.425-3.075c1.968-1.969 3.075-4.641 3.075-7.425s-1.107-5.456-3.075-7.425c-1.969-1.968-4.641-3.075-7.425-3.075z" stroke="#4d72b6" stroke-dasharray="50.57958206629343,15.393785846263194" stroke-dashoffset="65.973368"/></g><g fill="none" stroke-miterlimit="10"><path d="M4013.5 10.5l5 6 9-9" stroke="#6495ed"/><path d="M4020 1.5c-2.784 0-5.456 1.107-7.425 3.075-1.968 1.969-3.075 4.641-3.075 7.425s1.107 5.456 3.075 7.425c1.969 1.968 4.641 3.075 7.425 3.075s5.456-1.107 7.425-3.075c1.968-1.969 3.075-4.641 3.075-7.425s-1.107-5.456-3.075-7.425c-1.969-1.968-4.641-3.075-7.425-3.075z" stroke="#4e75ba" stroke-dasharray="51.67913819816936,14.294229714387262" stroke-dashoffset="65.973368"/></g><g fill="none" stroke-miterlimit="10"><path d="M4037.5 10.5l5 6 9-9" stroke="#6495ed"/><path d="M4044 1.5c-2.784 0-5.456 1.107-7.425 3.075-1.968 1.969-3.075 4.641-3.075 7.425s1.107 5.456 3.075 7.425c1.969 1.968 4.641 3.075 7.425 3.075s5.456-1.107 7.425-3.075c1.968-1.969 3.075-4.641 3.075-7.425s-1.107-5.456-3.075-7.425c-1.969-1.968-4.641-3.075-7.425-3.075z" stroke="#5077be" stroke-dasharray="52.778694330045305,13.194673582511323" stroke-dashoffset="65.973368"/></g><g fill="none" stroke-miterlimit="10"><path d="M4061.5 10.5l5 6 9-9" stroke="#6495ed"/><path d="M4068 1.5c-2.784 0-5.456 1.107-7.425 3.075-1.968 1.969-3.075 4.641-3.075 7.425s1.107 5.456 3.075 7.425c1.969 1.968 4.641 3.075 7.425 3.075s5.456-1.107 7.425-3.075c1.968-1.969 3.075-4.641 3.075-7.425s-1.107-5.456-3.075-7.425c-1.969-1.968-4.641-3.075-7.425-3.075z" stroke="#527ac2" stroke-dasharray="53.87825046192123,12.09511745063539" stroke-dashoffset="65.973368"/></g><g fill="none" stroke-miterlimit="10"><path d="M4085.5 10.5l5 6 9-9" stroke="#6495ed"/><path d="M4092 1.5c-2.784 0-5.456 1.107-7.425 3.075-1.968 1.969-3.075 4.641-3.075 7.425s1.107 5.456 3.075 7.425c1.969 1.968 4.641 3.075 7.425 3.075s5.456-1.107 7.425-3.075c1.968-1.969 3.075-4.641 3.075-7.425s-1.107-5.456-3.075-7.425c-1.969-1.968-4.641-3.075-7.425-3.075z" stroke="#537cc6" stroke-dasharray="54.9778065937972,10.995561318759428" stroke-dashoffset="65.973368"/></g><g fill="none" stroke-miterlimit="10"><path d="M4109.5 10.5l5 6 9-9" stroke="#6495ed"/><path d="M4116 1.5c-2.784 0-5.456 1.107-7.425 3.075-1.968 1.969-3.075 4.641-3.075 7.425s1.107 5.456 3.075 7.425c1.969 1.968 4.641 3.075 7.425 3.075s5.456-1.107 7.425-3.075c1.968-1.969 3.075-4.641 3.075-7.425s-1.107-5.456-3.075-7.425c-1.969-1.968-4.641-3.075-7.425-3.075z" stroke="#557fc9" stroke-dasharray="56.07736272567313,9.896005186883496" stroke-dashoffset="65.973368"/></g><g fill="none" stroke-miterlimit="10"><path d="M4133.5 10.5l5 6 9-9" stroke="#6495ed"/><path d="M4140 1.5c-2.784 0-5.456 1.107-7.425 3.075-1.968 1.969-3.075 4.641-3.075 7.425s1.107 5.456 3.075 7.425c1.969 1.968 4.641 3.075 7.425 3.075s5.456-1.107 7.425-3.075c1.968-1.969 3.075-4.641 3.075-7.425s-1.107-5.456-3.075-7.425c-1.969-1.968-4.641-3.075-7.425-3.075z" stroke="#5781cd" stroke-dasharray="57.17691885754909,8.796449055007534" stroke-dashoffset="65.973368"/></g><g fill="none" stroke-miterlimit="10"><path d="M4157.5 10.5l5 6 9-9" stroke="#6495ed"/><path d="M4164 1.5c-2.784 0-5.456 1.107-7.425 3.075-1.968 1.969-3.075 4.641-3.075 7.425s1.107 5.456 3.075 7.425c1.969 1.968 4.641 3.075 7.425 3.075s5.456-1.107 7.425-3.075c1.968-1.969 3.075-4.641 3.075-7.425s-1.107-5.456-3.075-7.425c-1.969-1.968-4.641-3.075-7.425-3.075z" stroke="#5884d1" stroke-dasharray="58.27647498942503,7.6968929231315935" stroke-dashoffset="65.973368"/></g><g fill="none" stroke-miterlimit="10"><path d="M4181.5 10.5l5 6 9-9" stroke="#6495ed"/><path d="M4188 1.5c-2.784 0-5.456 1.107-7.425 3.075-1.968 1.969-3.075 4.641-3.075 7.425s1.107 5.456 3.075 7.425c1.969 1.968 4.641 3.075 7.425 3.075s5.456-1.107 7.425-3.075c1.968-1.969 3.075-4.641 3.075-7.425s-1.107-5.456-3.075-7.425c-1.969-1.968-4.641-3.075-7.425-3.075z" stroke="#5a86d5" stroke-dasharray="59.37603112130096,6.597336791255661" stroke-dashoffset="65.973368"/></g><g fill="none" stroke-miterlimit="10"><path d="M4205.5 10.5l5 6 9-9" stroke="#6495ed"/><path d="M4212 1.5c-2.784 0-5.456 1.107-7.425 3.075-1.968 1.969-3.075 4.641-3.075 7.425s1.107 5.456 3.075 7.425c1.969 1.968 4.641 3.075 7.425 3.075s5.456-1.107 7.425-3.075c1.968-1.969 3.075-4.641 3.075-7.425s-1.107-5.456-3.075-7.425c-1.969-1.968-4.641-3.075-7.425-3.075z" stroke="#5c89d9" stroke-dasharray="60.4755872531769,5.497780659379728" stroke-dashoffset="65.973368"/></g><g fill="none" stroke-miterlimit="10"><path d="M4229.5 10.5l5 6 9-9" stroke="#6495ed"/><path d="M4236 1.5c-2.784 0-5.456 1.107-7.425 3.075-1.968 1.969-3.075 4.641-3.075 7.425s1.107 5.456 3.075 7.425c1.969 1.968 4.641 3.075 7.425 3.075s5.456-1.107 7.425-3.075c1.968-1.969 3.075-4.641 3.075-7.425s-1.107-5.456-3.075-7.425c-1.969-1.968-4.641-3.075-7.425-3.075z" stroke="#5d8bdd" stroke-dasharray="61.57514338505283,4.398224527503796" stroke-dashoffset="65.973368"/></g><g fill="none" stroke-miterlimit="10"><path d="M4253.5 10.5l5 6 9-9" stroke="#6495ed"/><path d="M4260 1.5c-2.784 0-5.456 1.107-7.425 3.075-1.968 1.969-3.075 4.641-3.075 7.425s1.107 5.456 3.075 7.425c1.969 1.968 4.641 3.075 7.425 3.075s5.456-1.107 7.425-3.075c1.968-1.969 3.075-4.641 3.075-7.425s-1.107-5.456-3.075-7.425c-1.969-1.968-4.641-3.075-7.425-3.075z" stroke="#5f8ee1" stroke-dasharray="62.67469951692879,3.298668395627834" stroke-dashoffset="65.973368"/></g><g fill="none" stroke-miterlimit="10"><path d="M4277.5 10.5l5 6 9-9" stroke="#6495ed"/><path d="M4284 1.5c-2.784 0-5.456 1.107-7.425 3.075-1.968 1.969-3.075 4.641-3.075 7.425s1.107 5.456 3.075 7.425c1.969 1.968 4.641 3.075 7.425 3.075s5.456-1.107 7.425-3.075c1.968-1.969 3.075-4.641 3.075-7.425s-1.107-5.456-3.075-7.425c-1.969-1.968-4.641-3.075-7.425-3.075z" stroke="#6190e5" stroke-dasharray="63.77425564880476,2.199112263751865" stroke-dashoffset="65.973368"/></g><g fill="none" stroke-miterlimit="10"><path d="M4301.5 10.5l5 6 9-9" stroke="#6495ed"/><path d="M4308 1.5c-2.784 0-5.456 1.107-7.425 3.075-1.968 1.969-3.075 4.641-3.075 7.425s1.107 5.456 3.075 7.425c1.969 1.968 4.641 3.075 7.425 3.075s5.456-1.107 7.425-3.075c1.968-1.969 3.075-4.641 3.075-7.425s-1.107-5.456-3.075-7.425c-1.969-1.968-4.641-3.075-7.425-3.075z" stroke="#6293e9" stroke-dasharray="64.8738117806807,1.0995561318759326" stroke-dashoffset="65.973368"/></g><g fill="none" stroke="#6495ed" stroke-miterlimit="10"><path d="M4325.5 10.5l5 6 9-9"/><path d="M4332 1.5c-2.784 0-5.456 1.107-7.425 3.075-1.968 1.969-3.075 4.641-3.075 7.425s1.107 5.456 3.075 7.425c1.969 1.968 4.641 3.075 7.425 3.075s5.456-1.107 7.425-3.075c1.968-1.969 3.075-4.641 3.075-7.425s-1.107-5.456-3.075-7.425c-1.969-1.968-4.641-3.075-7.425-3.075z"/></g></svg>